<?xml version="1.0" encoding="utf-8" ?>
<svg baseProfile="full" height="256" version="1.1" width="256" xmlns="http://www.w3.org/2000/svg" xmlns:ev="http://www.w3.org/2001/xml-events" xmlns:xlink="http://www.w3.org/1999/xlink"><title>Value Evolved Logo</title><defs /><path d="M 75,61 L 73,63 L 73,64 L 72,65 L 72,66 L 71,67 L 69,65 L 68,65 L 67,64 L 66,64 L 64,62 L 3,62 L 2,63 L 0,63 L 0,75 L 4,79 L 5,79 L 89,163 L 89,164 L 113,188 L 114,188 L 115,189 L 116,189 L 117,190 L 119,190 L 120,191 L 121,191 L 122,192 L 123,192 L 124,193 L 125,193 L 126,192 L 130,192 L 131,193 L 133,193 L 134,192 L 136,192 L 137,191 L 138,191 L 140,189 L 141,189 L 175,155 L 175,152 L 174,151 L 176,149 L 179,149 L 183,145 L 184,145 L 253,76 L 253,75 L 254,74 L 255,74 L 255,63 L 252,63 L 251,62 L 197,62 L 195,64 L 192,64 L 187,69 L 187,70 L 185,72 L 184,72 L 180,76 L 180,77 L 178,79 L 177,79 L 177,80 L 176,81 L 176,82 L 175,83 L 174,83 L 167,90 L 167,91 L 166,92 L 165,92 L 132,125 L 132,126 L 131,127 L 130,127 L 122,119 L 122,118 L 120,116 L 121,115 L 122,115 L 124,113 L 125,113 L 164,74 L 165,74 L 167,72 L 167,71 L 169,69 L 168,68 L 168,67 L 167,66 L 167,65 L 166,65 L 163,62 L 119,62 L 118,61 L 117,61 L 114,64 L 114,65 L 95,84 L 94,84 L 93,85 L 93,86 L 92,87 L 91,87 L 83,79 L 84,78 L 85,78 L 92,71 L 92,70 L 93,69 L 93,67 L 90,64 L 89,64 L 88,63 L 88,62 L 76,62 Z" fill="#801446" /></svg>