<?xml version="1.0" encoding="utf-8" ?>
<svg baseProfile="full" height="1024" version="1.1" width="1024" xmlns="http://www.w3.org/2000/svg" xmlns:ev="http://www.w3.org/2001/xml-events" xmlns:xlink="http://www.w3.org/1999/xlink"><title>Value Evolved Logo</title><defs /><path d="M 787,257 L 785,258 L 783,260 L 781,262 L 779,264 L 777,266 L 775,268 L 773,270 L 771,272 L 769,274 L 767,276 L 765,278 L 763,280 L 761,282 L 759,284 L 758,286 L 756,287 L 754,289 L 752,291 L 750,293 L 748,295 L 746,297 L 744,299 L 742,301 L 740,303 L 738,305 L 736,307 L 734,309 L 732,311 L 730,313 L 728,315 L 726,317 L 724,319 L 722,321 L 720,323 L 718,325 L 716,327 L 714,329 L 712,331 L 710,333 L 708,335 L 706,337 L 704,339 L 702,341 L 700,343 L 698,345 L 696,347 L 694,348 L 692,350 L 691,352 L 689,354 L 687,356 L 685,357 L 684,359 L 682,361 L 680,363 L 678,364 L 676,366 L 675,368 L 673,370 L 671,372 L 669,374 L 667,376 L 665,378 L 663,380 L 661,382 L 659,384 L 657,386 L 655,388 L 653,389 L 652,391 L 650,393 L 648,395 L 646,397 L 644,399 L 642,401 L 640,403 L 638,405 L 636,407 L 634,409 L 632,411 L 630,413 L 628,415 L 626,417 L 624,419 L 622,421 L 620,423 L 618,425 L 616,427 L 614,429 L 613,430 L 611,432 L 609,434 L 607,436 L 605,438 L 603,440 L 601,442 L 599,444 L 597,445 L 595,447 L 594,449 L 592,451 L 590,453 L 588,455 L 586,457 L 584,459 L 582,461 L 580,463 L 578,465 L 576,467 L 574,469 L 572,471 L 570,473 L 568,474 L 567,476 L 565,477 L 563,479 L 562,481 L 560,483 L 558,485 L 556,487 L 554,488 L 553,490 L 551,492 L 549,494 L 547,496 L 545,498 L 543,500 L 541,502 L 540,504 L 541,506 L 543,508 L 545,510 L 547,512 L 549,514 L 551,516 L 553,518 L 555,520 L 557,522 L 559,524 L 561,526 L 562,528 L 564,530 L 566,532 L 568,533 L 570,535 L 572,537 L 574,539 L 576,541 L 578,543 L 580,545 L 582,547 L 583,549 L 585,550 L 587,552 L 589,554 L 591,556 L 593,558 L 594,560 L 596,562 L 598,564 L 600,566 L 602,568 L 604,570 L 606,571 L 608,573 L 610,575 L 612,577 L 614,578 L 616,580 L 618,581 L 620,583 L 622,584 L 624,585 L 626,586 L 628,588 L 630,589 L 632,589 L 634,590 L 636,591 L 638,592 L 640,593 L 642,594 L 644,594 L 646,595 L 648,596 L 650,596 L 652,596 L 654,596 L 656,597 L 658,597 L 660,597 L 662,597 L 664,599 L 666,599 L 668,598 L 670,598 L 672,598 L 674,598 L 676,598 L 678,599 L 680,599 L 682,597 L 684,597 L 686,597 L 688,597 L 690,596 L 692,596 L 694,596 L 696,595 L 698,594 L 700,594 L 702,594 L 704,593 L 706,592 L 708,591 L 710,590 L 712,589 L 714,588 L 716,587 L 718,586 L 720,585 L 722,583 L 724,582 L 726,581 L 728,580 L 730,578 L 732,576 L 734,575 L 736,573 L 738,571 L 740,569 L 742,567 L 744,565 L 746,563 L 748,561 L 750,559 L 752,557 L 754,555 L 756,553 L 758,552 L 759,550 L 761,548 L 763,546 L 765,544 L 767,542 L 769,540 L 771,538 L 773,536 L 775,534 L 777,532 L 779,530 L 781,528 L 783,526 L 785,525 L 786,523 L 788,521 L 790,519 L 792,517 L 794,516 L 795,514 L 797,512 L 799,510 L 801,509 L 802,507 L 804,505 L 806,503 L 808,501 L 810,499 L 812,497 L 814,495 L 816,493 L 818,491 L 820,489 L 822,487 L 824,485 L 826,483 L 828,481 L 830,479 L 832,477 L 834,475 L 836,473 L 838,471 L 840,469 L 842,467 L 844,465 L 846,463 L 848,461 L 850,459 L 852,457 L 854,455 L 856,453 L 858,451 L 860,449 L 862,447 L 864,445 L 866,443 L 868,441 L 870,439 L 872,437 L 874,435 L 876,433 L 878,431 L 880,429 L 882,427 L 884,425 L 886,423 L 888,421 L 890,419 L 892,417 L 894,415 L 896,413 L 898,411 L 900,409 L 902,407 L 904,405 L 906,403 L 908,401 L 910,399 L 912,398 L 914,396 L 915,394 L 917,392 L 919,390 L 921,388 L 923,386 L 925,384 L 927,382 L 929,380 L 931,379 L 933,377 L 934,375 L 936,373 L 938,371 L 940,369 L 942,367 L 944,365 L 946,363 L 948,361 L 950,359 L 952,357 L 954,355 L 956,354 L 957,352 L 959,350 L 961,348 L 963,346 L 965,345 L 967,343 L 968,341 L 970,339 L 972,338 L 973,336 L 975,334 L 977,332 L 979,330 L 981,328 L 983,326 L 985,324 L 987,322 L 989,320 L 991,319 L 992,317 L 994,315 L 996,313 L 998,311 L 1000,309 L 1002,307 L 1004,305 L 1006,303 L 1008,301 L 1009,299 L 1011,297 L 1013,296 L 1014,294 L 1016,292 L 1018,290 L 1019,288 L 1021,286 L 1023,285 L 1023,283 L 1023,281 L 1023,279 L 1023,277 L 1023,275 L 1023,273 L 1023,271 L 1023,269 L 1021,268 L 1020,266 L 1019,264 L 1017,262 L 1015,260 L 1013,259 L 1011,258 L 1009,257 L 1007,257 L 1005,257 L 1003,257 L 1001,257 L 999,257 L 997,257 L 995,257 L 993,257 L 991,257 L 989,257 L 987,257 L 985,257 L 983,257 L 981,257 L 979,257 L 977,257 L 975,257 L 973,257 L 971,257 L 969,257 L 967,257 L 965,257 L 963,257 L 961,257 L 959,257 L 957,257 L 955,257 L 953,257 L 951,257 L 949,257 L 947,257 L 945,257 L 943,257 L 941,257 L 939,257 L 937,257 L 935,257 L 933,257 L 931,257 L 929,257 L 927,257 L 925,257 L 923,257 L 921,257 L 919,257 L 917,257 L 915,257 L 913,257 L 911,257 L 909,257 L 907,257 L 905,257 L 903,257 L 901,257 L 899,257 L 897,257 L 895,257 L 893,257 L 891,257 L 889,257 L 887,257 L 885,257 L 883,257 L 881,257 L 879,257 L 877,257 L 875,257 L 873,257 L 871,257 L 869,257 L 867,257 L 865,257 L 863,257 L 861,257 L 859,257 L 857,257 L 855,257 L 853,257 L 851,257 L 849,257 L 847,257 L 845,257 L 843,257 L 841,257 L 839,257 L 837,257 L 835,257 L 833,257 L 831,257 L 829,257 L 827,257 L 825,257 L 823,257 L 821,257 L 819,257 L 817,257 L 815,257 L 813,257 L 811,257 L 809,257 L 807,257 L 805,257 L 803,257 L 801,257 L 799,257 L 797,257 L 795,257 L 793,257 L 791,257 L 789,257 Z" fill="#801446" /><path d="M 470,257 L 468,258 L 466,259 L 464,261 L 463,263 L 461,264 L 460,266 L 458,268 L 456,270 L 454,272 L 452,274 L 450,276 L 449,277 L 447,279 L 445,281 L 443,282 L 442,284 L 440,286 L 438,288 L 436,290 L 434,292 L 432,293 L 431,295 L 429,296 L 427,298 L 425,300 L 424,302 L 422,304 L 420,306 L 418,308 L 416,310 L 414,311 L 413,313 L 411,315 L 409,316 L 408,318 L 406,320 L 404,321 L 402,323 L 401,325 L 399,326 L 397,328 L 396,330 L 394,332 L 392,333 L 391,335 L 389,337 L 387,338 L 386,340 L 384,342 L 382,344 L 381,346 L 383,348 L 385,350 L 386,352 L 388,353 L 390,355 L 391,357 L 393,358 L 395,360 L 397,362 L 399,364 L 400,366 L 402,368 L 404,369 L 406,371 L 407,373 L 409,375 L 411,376 L 413,378 L 415,380 L 417,382 L 419,384 L 420,385 L 422,387 L 424,389 L 426,391 L 427,393 L 429,394 L 431,396 L 432,398 L 434,399 L 436,401 L 438,403 L 440,405 L 442,407 L 444,409 L 446,411 L 448,413 L 449,415 L 451,416 L 453,418 L 454,420 L 456,421 L 458,423 L 460,425 L 461,427 L 463,428 L 465,430 L 467,432 L 468,434 L 470,436 L 472,437 L 474,439 L 476,441 L 478,443 L 479,445 L 481,447 L 483,448 L 484,450 L 486,452 L 488,453 L 490,455 L 492,455 L 494,454 L 496,452 L 498,450 L 500,448 L 501,446 L 503,444 L 505,442 L 507,440 L 509,438 L 511,436 L 513,435 L 515,433 L 516,431 L 518,429 L 520,427 L 522,425 L 524,424 L 525,422 L 527,421 L 529,419 L 530,417 L 532,415 L 534,413 L 536,411 L 538,409 L 540,408 L 541,406 L 543,404 L 545,402 L 547,400 L 549,398 L 551,397 L 553,395 L 554,393 L 556,391 L 558,389 L 560,387 L 562,385 L 564,384 L 565,382 L 567,380 L 569,378 L 571,376 L 573,374 L 574,373 L 576,371 L 578,370 L 580,368 L 582,366 L 583,364 L 585,363 L 587,361 L 588,359 L 590,357 L 592,355 L 594,353 L 596,352 L 597,350 L 599,348 L 601,346 L 603,345 L 605,343 L 606,341 L 608,339 L 610,337 L 612,335 L 614,333 L 616,332 L 617,330 L 619,328 L 621,326 L 623,324 L 625,322 L 627,321 L 629,319 L 630,317 L 632,315 L 634,313 L 636,311 L 638,310 L 639,308 L 641,306 L 643,304 L 645,302 L 647,300 L 649,298 L 651,297 L 653,295 L 654,293 L 656,291 L 658,289 L 660,288 L 661,286 L 663,284 L 664,282 L 665,280 L 666,278 L 666,276 L 666,274 L 666,272 L 666,270 L 665,268 L 664,266 L 663,264 L 662,262 L 660,260 L 658,259 L 656,258 L 654,257 L 652,257 L 650,257 L 648,257 L 646,257 L 644,257 L 642,257 L 640,257 L 638,257 L 636,257 L 634,257 L 632,257 L 630,257 L 628,257 L 626,257 L 624,257 L 622,257 L 620,257 L 618,257 L 616,257 L 614,257 L 612,257 L 610,257 L 608,257 L 606,257 L 604,257 L 602,257 L 600,257 L 598,257 L 596,257 L 594,257 L 592,257 L 590,257 L 588,257 L 586,257 L 584,257 L 582,257 L 580,257 L 578,257 L 576,257 L 574,257 L 572,257 L 570,257 L 568,257 L 566,257 L 564,257 L 562,257 L 560,257 L 558,257 L 556,257 L 554,257 L 552,257 L 550,257 L 548,257 L 546,257 L 544,257 L 542,257 L 540,257 L 538,257 L 536,257 L 534,257 L 532,257 L 530,257 L 528,257 L 526,257 L 524,257 L 522,257 L 520,257 L 518,257 L 516,257 L 514,257 L 512,257 L 510,257 L 508,257 L 506,257 L 504,257 L 502,257 L 500,257 L 498,257 L 496,257 L 494,257 L 492,257 L 490,257 L 488,257 L 486,257 L 484,257 L 482,257 L 480,257 L 478,257 L 476,257 L 474,257 L 472,257 Z" fill="#801446" /><path d="M 297,257 L 295,259 L 296,261 L 297,263 L 299,264 L 301,266 L 302,268 L 304,269 L 306,271 L 308,273 L 310,275 L 311,277 L 313,279 L 315,281 L 317,282 L 319,284 L 321,286 L 323,288 L 324,290 L 326,291 L 328,293 L 329,295 L 331,296 L 333,298 L 335,300 L 336,302 L 338,303 L 340,304 L 342,302 L 344,300 L 346,299 L 347,297 L 349,295 L 351,294 L 353,292 L 354,290 L 356,288 L 358,286 L 360,284 L 361,282 L 362,280 L 362,278 L 362,276 L 362,274 L 362,272 L 363,270 L 362,268 L 361,266 L 359,264 L 358,262 L 356,260 L 354,259 L 352,257 L 350,257 L 348,257 L 346,257 L 344,257 L 342,257 L 340,257 L 338,257 L 336,257 L 334,257 L 332,257 L 330,257 L 328,257 L 326,257 L 324,257 L 322,257 L 320,257 L 318,257 L 316,257 L 314,257 L 312,257 L 310,257 L 308,257 L 306,257 L 304,257 L 302,257 L 300,257 L 298,257 Z" fill="#801446" /><path d="M 10,257 L 8,259 L 6,260 L 4,261 L 2,263 L 1,265 L 0,267 L 0,269 L 0,271 L 0,273 L 0,275 L 0,277 L 0,279 L 0,281 L 0,283 L 0,285 L 0,287 L 1,289 L 3,291 L 5,293 L 7,295 L 9,297 L 11,299 L 13,301 L 15,303 L 16,305 L 18,307 L 20,309 L 22,311 L 24,313 L 26,315 L 28,317 L 30,319 L 32,321 L 34,323 L 36,325 L 38,326 L 40,328 L 41,330 L 43,332 L 45,333 L 47,335 L 48,337 L 50,339 L 52,341 L 54,343 L 56,345 L 58,347 L 60,349 L 62,351 L 64,353 L 66,355 L 68,357 L 70,359 L 72,361 L 74,363 L 76,365 L 78,367 L 80,369 L 82,371 L 84,373 L 86,375 L 88,377 L 90,379 L 92,381 L 94,383 L 96,385 L 98,387 L 100,389 L 102,391 L 104,393 L 106,395 L 108,397 L 110,399 L 112,400 L 114,402 L 115,404 L 117,406 L 119,407 L 121,409 L 122,411 L 124,413 L 126,415 L 128,417 L 130,419 L 132,421 L 134,423 L 136,425 L 138,427 L 140,429 L 142,431 L 144,433 L 146,435 L 148,437 L 150,439 L 152,441 L 154,443 L 156,445 L 158,447 L 160,449 L 162,451 L 164,453 L 166,455 L 168,457 L 170,459 L 172,461 L 174,463 L 176,464 L 178,466 L 179,468 L 181,470 L 183,471 L 184,473 L 186,475 L 188,477 L 190,479 L 192,481 L 194,483 L 196,485 L 198,486 L 200,488 L 201,490 L 203,492 L 205,494 L 207,496 L 209,498 L 211,500 L 213,502 L 215,504 L 217,506 L 219,508 L 221,510 L 223,512 L 225,514 L 227,516 L 229,518 L 231,520 L 233,521 L 235,523 L 236,525 L 238,527 L 240,529 L 242,531 L 244,533 L 246,535 L 248,537 L 250,539 L 252,541 L 254,543 L 256,545 L 258,547 L 260,549 L 262,551 L 264,553 L 266,555 L 268,557 L 270,559 L 272,560 L 274,562 L 275,564 L 277,566 L 279,568 L 281,570 L 283,572 L 285,574 L 287,576 L 289,578 L 291,580 L 293,582 L 295,584 L 297,586 L 299,588 L 301,589 L 303,591 L 304,593 L 306,594 L 307,596 L 309,598 L 311,600 L 313,601 L 314,603 L 316,605 L 318,607 L 320,609 L 322,611 L 324,613 L 326,615 L 328,617 L 330,619 L 332,621 L 334,623 L 336,625 L 338,627 L 340,629 L 342,631 L 344,633 L 346,635 L 348,637 L 350,639 L 352,641 L 354,643 L 356,645 L 358,647 L 360,649 L 362,651 L 364,653 L 366,655 L 368,657 L 370,659 L 372,660 L 373,662 L 375,664 L 377,666 L 379,668 L 381,670 L 383,672 L 385,673 L 387,675 L 389,677 L 390,679 L 392,681 L 394,683 L 396,685 L 398,687 L 400,689 L 402,691 L 404,693 L 406,695 L 408,697 L 410,699 L 412,701 L 414,702 L 416,704 L 417,706 L 419,707 L 421,709 L 423,711 L 424,713 L 426,715 L 428,717 L 430,719 L 432,720 L 434,722 L 435,724 L 437,725 L 439,727 L 441,729 L 442,731 L 444,733 L 446,735 L 448,736 L 450,738 L 451,740 L 453,741 L 454,743 L 456,744 L 458,746 L 460,747 L 462,749 L 464,750 L 466,751 L 468,752 L 470,753 L 472,754 L 474,755 L 476,757 L 478,758 L 480,759 L 482,760 L 484,760 L 486,760 L 488,761 L 490,761 L 492,762 L 494,763 L 496,763 L 498,764 L 500,765 L 502,765 L 504,765 L 506,766 L 508,766 L 510,766 L 512,766 L 514,766 L 516,766 L 518,766 L 520,765 L 522,765 L 524,765 L 526,764 L 528,763 L 530,762 L 532,762 L 534,762 L 536,761 L 538,761 L 540,761 L 542,760 L 544,759 L 546,758 L 548,757 L 550,755 L 552,755 L 554,754 L 556,753 L 558,751 L 560,750 L 562,749 L 564,747 L 566,746 L 568,744 L 570,742 L 572,741 L 574,739 L 575,737 L 577,736 L 579,734 L 581,732 L 583,730 L 585,728 L 587,726 L 589,724 L 591,722 L 593,720 L 595,718 L 597,716 L 599,714 L 601,712 L 603,710 L 605,708 L 607,706 L 609,704 L 611,702 L 613,700 L 615,698 L 617,696 L 619,694 L 621,692 L 623,690 L 625,688 L 627,686 L 629,684 L 630,682 L 632,680 L 634,679 L 636,677 L 637,675 L 639,673 L 641,672 L 643,671 L 644,669 L 646,667 L 648,665 L 650,663 L 652,661 L 653,659 L 655,657 L 657,656 L 659,654 L 660,653 L 662,651 L 664,649 L 666,647 L 668,645 L 670,643 L 672,641 L 674,639 L 676,637 L 678,635 L 680,633 L 681,631 L 683,629 L 685,627 L 687,625 L 689,623 L 691,622 L 693,620 L 695,618 L 697,616 L 698,614 L 698,612 L 696,611 L 694,611 L 692,611 L 690,612 L 688,613 L 686,613 L 684,614 L 682,615 L 680,615 L 678,615 L 676,616 L 674,616 L 672,616 L 670,615 L 668,615 L 666,616 L 664,616 L 662,616 L 660,616 L 658,616 L 656,616 L 654,615 L 652,615 L 650,616 L 648,616 L 646,614 L 644,614 L 642,614 L 640,614 L 638,613 L 636,613 L 634,613 L 632,612 L 630,611 L 628,610 L 626,609 L 624,609 L 622,608 L 620,607 L 618,607 L 616,606 L 614,604 L 612,603 L 610,602 L 608,601 L 606,599 L 604,598 L 602,597 L 600,595 L 598,594 L 596,592 L 594,590 L 592,588 L 590,586 L 588,584 L 587,583 L 585,581 L 583,579 L 582,577 L 580,576 L 578,574 L 576,572 L 575,571 L 573,569 L 572,567 L 570,566 L 568,564 L 566,562 L 564,560 L 562,558 L 560,556 L 558,554 L 556,552 L 554,550 L 552,548 L 550,546 L 548,544 L 546,542 L 544,540 L 542,538 L 540,536 L 538,534 L 536,532 L 534,530 L 532,528 L 530,526 L 528,524 L 526,522 L 524,520 L 522,518 L 521,516 L 519,514 L 517,513 L 515,511 L 513,509 L 511,507 L 509,505 L 508,503 L 506,502 L 504,500 L 503,498 L 501,497 L 499,495 L 497,493 L 495,491 L 493,489 L 492,487 L 490,486 L 488,484 L 486,482 L 484,480 L 482,478 L 480,476 L 478,474 L 476,472 L 475,470 L 473,469 L 471,467 L 469,465 L 467,463 L 465,461 L 464,459 L 462,458 L 460,456 L 458,454 L 456,452 L 454,450 L 452,448 L 450,446 L 449,445 L 447,443 L 445,441 L 443,439 L 441,437 L 439,435 L 437,433 L 435,431 L 433,429 L 431,427 L 429,425 L 427,423 L 425,421 L 423,419 L 421,417 L 419,415 L 417,413 L 415,411 L 413,409 L 411,407 L 409,405 L 407,403 L 405,401 L 403,399 L 401,397 L 399,395 L 397,393 L 395,391 L 393,389 L 391,387 L 389,385 L 387,383 L 385,381 L 384,379 L 382,378 L 380,376 L 378,374 L 376,372 L 374,370 L 372,368 L 370,366 L 368,364 L 366,362 L 364,360 L 362,358 L 361,356 L 359,355 L 357,353 L 355,351 L 353,349 L 351,347 L 349,345 L 347,343 L 345,341 L 344,339 L 342,338 L 340,336 L 338,334 L 337,332 L 335,331 L 333,329 L 331,327 L 329,325 L 327,323 L 325,321 L 323,319 L 321,317 L 319,315 L 317,313 L 315,311 L 314,309 L 312,308 L 310,306 L 308,304 L 306,302 L 304,300 L 303,298 L 301,297 L 299,295 L 297,293 L 295,291 L 293,289 L 291,287 L 289,285 L 287,283 L 286,281 L 284,280 L 282,278 L 280,276 L 278,274 L 276,272 L 274,270 L 272,268 L 270,266 L 268,264 L 266,262 L 264,260 L 262,258 L 260,257 L 258,257 L 256,257 L 254,257 L 252,257 L 250,257 L 248,257 L 246,257 L 244,257 L 242,257 L 240,257 L 238,257 L 236,257 L 234,257 L 232,257 L 230,257 L 228,257 L 226,257 L 224,257 L 222,257 L 220,257 L 218,257 L 216,257 L 214,257 L 212,257 L 210,257 L 208,257 L 206,257 L 204,257 L 202,257 L 200,257 L 198,257 L 196,257 L 194,257 L 192,257 L 190,257 L 188,257 L 186,257 L 184,257 L 182,257 L 180,257 L 178,257 L 176,257 L 174,257 L 172,257 L 170,257 L 168,257 L 166,257 L 164,257 L 162,257 L 160,257 L 158,257 L 156,257 L 154,257 L 152,257 L 150,257 L 148,257 L 146,257 L 144,257 L 142,257 L 140,257 L 138,257 L 136,257 L 134,257 L 132,257 L 130,257 L 128,257 L 126,257 L 124,257 L 122,257 L 120,257 L 118,257 L 116,257 L 114,257 L 112,257 L 110,257 L 108,257 L 106,257 L 104,257 L 102,257 L 100,257 L 98,257 L 96,257 L 94,257 L 92,257 L 90,257 L 88,257 L 86,257 L 84,257 L 82,257 L 80,257 L 78,257 L 76,257 L 74,257 L 72,257 L 70,257 L 68,257 L 66,257 L 64,257 L 62,257 L 60,257 L 58,257 L 56,257 L 54,257 L 52,257 L 50,257 L 48,257 L 46,257 L 44,257 L 42,257 L 40,257 L 38,257 L 36,257 L 34,257 L 32,257 L 30,257 L 28,257 L 26,257 L 24,257 L 22,257 L 20,257 L 18,257 L 16,257 L 14,257 L 12,257 Z" fill="#801446" /></svg>