<?xml version="1.0" encoding="utf-8" ?>
<svg baseProfile="full" height="384" version="1.1" width="384" xmlns="http://www.w3.org/2000/svg" xmlns:ev="http://www.w3.org/2001/xml-events" xmlns:xlink="http://www.w3.org/1999/xlink"><title>Value Evolved Logo</title><defs /><path d="M 131,95 L 108,97 L 109,99 L 124,113 L 127,114 L 129,114 L 134,109 L 137,106 L 138,104 L 138,102 L 137,99 L 133,95 Z" fill="#801446" /><path d="M 375,96 L 295,95 L 290,98 L 287,101 L 287,102 L 285,104 L 272,117 L 270,119 L 268,121 L 267,122 L 246,142 L 225,164 L 223,166 L 217,172 L 215,174 L 214,174 L 211,177 L 206,183 L 205,183 L 200,189 L 204,193 L 213,202 L 214,203 L 218,207 L 225,214 L 226,215 L 232,220 L 245,226 L 258,226 L 262,225 L 265,222 L 268,222 L 269,220 L 273,219 L 275,217 L 276,215 L 278,213 L 281,213 L 283,211 L 289,205 L 298,196 L 375,118 L 376,115 L 378,113 L 383,109 L 383,98 L 380,95 L 378,94 Z" fill="#801446" /><path d="M 244,94 L 242,96 L 175,96 L 173,97 L 169,100 L 162,107 L 151,118 L 144,125 L 144,127 L 142,129 L 142,131 L 145,134 L 159,148 L 160,149 L 168,157 L 169,158 L 174,163 L 175,164 L 183,171 L 186,171 L 251,106 L 252,101 L 251,99 L 246,94 Z" fill="#801446" /><path d="M 4,94 L 2,95 L 0,97 L 0,110 L 2,112 L 4,113 L 5,114 L 7,118 L 33,145 L 39,151 L 54,165 L 54,166 L 60,171 L 63,174 L 63,175 L 65,177 L 69,180 L 69,181 L 71,183 L 72,183 L 75,186 L 78,190 L 80,192 L 84,196 L 86,198 L 93,205 L 95,207 L 109,219 L 110,220 L 121,231 L 122,232 L 124,234 L 125,235 L 130,240 L 131,241 L 134,245 L 135,246 L 140,251 L 141,252 L 143,254 L 144,255 L 145,255 L 146,256 L 146,257 L 147,258 L 149,260 L 150,261 L 155,265 L 155,266 L 156,267 L 157,267 L 161,272 L 162,273 L 164,275 L 165,276 L 169,278 L 172,282 L 176,283 L 177,285 L 182,286 L 185,288 L 189,289 L 194,289 L 200,288 L 203,287 L 209,284 L 214,280 L 216,278 L 221,273 L 230,264 L 231,263 L 236,258 L 244,250 L 245,249 L 261,233 L 263,230 L 261,228 L 252,228 L 250,230 L 244,230 L 240,229 L 237,227 L 233,227 L 230,225 L 225,221 L 224,221 L 223,220 L 126,123 L 121,118 L 108,105 L 107,104 L 102,99 L 100,97 L 100,96 L 97,94 L 95,96 L 7,96 Z" fill="#801446" /></svg>