<?xml version="1.0" encoding="utf-8" ?>
<svg baseProfile="full" height="256" version="1.1" width="256" xmlns="http://www.w3.org/2000/svg" xmlns:ev="http://www.w3.org/2001/xml-events" xmlns:xlink="http://www.w3.org/1999/xlink"><title>Value Evolved Logo</title><defs /><path d="M 194,65 L 171,88 L 170,88 L 170,89 L 168,91 L 167,91 L 163,95 L 163,96 L 162,97 L 161,97 L 135,123 L 136,124 L 135,125 L 134,125 L 133,126 L 153,146 L 154,146 L 156,148 L 157,148 L 158,149 L 159,149 L 158,149 L 157,148 L 158,147 L 160,147 L 161,148 L 164,148 L 165,149 L 164,150 L 161,150 L 164,150 L 165,149 L 170,149 L 171,148 L 174,148 L 175,147 L 177,147 L 178,148 L 177,149 L 176,149 L 177,149 L 178,148 L 179,148 L 180,147 L 179,146 L 181,144 L 182,144 L 183,145 L 182,146 L 255,73 L 254,72 L 255,71 L 255,67 L 254,66 L 255,65 L 254,66 L 253,65 L 196,65 L 195,66 Z" fill="#801446" /><path d="M 114,65 L 96,83 L 97,84 L 96,85 L 96,87 L 95,88 L 94,87 L 94,86 L 94,87 L 122,115 L 123,115 L 167,71 L 167,70 L 168,69 L 168,68 L 168,69 L 167,70 L 166,69 L 166,67 L 167,66 L 166,65 L 165,66 L 164,65 L 116,65 L 115,66 Z" fill="#801446" /><path d="M 72,65 L 84,77 L 85,77 L 91,71 L 91,70 L 92,69 L 92,67 L 90,65 L 89,66 L 88,65 L 74,65 L 73,66 Z" fill="#801446" /><path d="M 1,65 L 0,66 L 0,72 L 1,73 L 0,74 L 112,186 L 111,185 L 112,184 L 113,184 L 115,186 L 114,187 L 116,189 L 117,189 L 118,190 L 119,190 L 120,189 L 122,189 L 123,190 L 133,190 L 134,189 L 136,189 L 137,190 L 136,189 L 137,188 L 138,188 L 139,189 L 140,188 L 139,187 L 140,186 L 141,186 L 142,187 L 175,154 L 174,153 L 174,152 L 173,151 L 174,150 L 172,150 L 171,151 L 166,151 L 165,152 L 160,152 L 159,153 L 157,153 L 156,152 L 157,151 L 158,151 L 157,151 L 156,152 L 154,152 L 153,151 L 154,150 L 155,150 L 154,150 L 153,149 L 154,150 L 153,151 L 152,151 L 150,149 L 151,148 L 122,119 L 121,119 L 120,118 L 120,117 L 119,116 L 118,116 L 67,65 L 66,66 L 65,65 Z" fill="#801446" /></svg>