<?xml version="1.0" encoding="utf-8" ?>
<svg baseProfile="full" height="512" version="1.1" width="512" xmlns="http://www.w3.org/2000/svg" xmlns:ev="http://www.w3.org/2001/xml-events" xmlns:xlink="http://www.w3.org/1999/xlink"><title>Value Evolved Logo</title><defs /><path d="M 393,126 L 389,130 L 389,131 L 385,135 L 384,135 L 383,136 L 383,137 L 368,152 L 367,152 L 366,153 L 366,154 L 354,166 L 353,166 L 350,169 L 350,170 L 348,172 L 347,172 L 347,173 L 345,175 L 344,175 L 344,176 L 335,185 L 334,185 L 333,186 L 333,187 L 332,188 L 331,188 L 330,189 L 330,190 L 328,192 L 327,192 L 327,193 L 318,202 L 317,202 L 317,203 L 315,205 L 314,205 L 313,206 L 313,207 L 291,229 L 290,229 L 290,230 L 288,232 L 287,232 L 287,233 L 272,248 L 271,248 L 269,250 L 269,252 L 270,253 L 270,254 L 271,255 L 271,256 L 301,286 L 302,286 L 303,287 L 304,287 L 307,290 L 307,291 L 308,291 L 309,292 L 310,292 L 311,293 L 312,293 L 314,295 L 316,295 L 318,297 L 321,297 L 322,298 L 324,298 L 325,299 L 331,299 L 332,300 L 333,300 L 334,301 L 335,300 L 336,300 L 337,301 L 338,300 L 339,300 L 340,299 L 343,299 L 344,300 L 346,300 L 347,299 L 348,299 L 349,298 L 350,298 L 351,297 L 355,297 L 356,296 L 357,296 L 360,293 L 362,293 L 364,291 L 364,290 L 366,288 L 367,288 L 370,285 L 371,285 L 372,284 L 372,283 L 374,281 L 375,281 L 375,280 L 377,278 L 378,278 L 380,276 L 380,275 L 381,274 L 382,274 L 383,273 L 383,272 L 384,271 L 385,271 L 386,270 L 386,269 L 387,268 L 388,268 L 389,267 L 389,266 L 390,265 L 391,265 L 392,264 L 392,263 L 394,261 L 395,261 L 395,260 L 396,259 L 397,259 L 400,256 L 400,255 L 402,253 L 403,253 L 403,252 L 404,251 L 405,251 L 406,250 L 406,249 L 407,248 L 408,248 L 409,247 L 409,246 L 410,245 L 411,245 L 412,244 L 412,243 L 414,241 L 415,241 L 415,240 L 422,233 L 423,233 L 423,232 L 424,231 L 425,231 L 426,230 L 426,229 L 427,228 L 428,228 L 429,227 L 429,226 L 431,224 L 432,224 L 432,223 L 433,222 L 434,222 L 435,221 L 435,220 L 441,214 L 442,214 L 443,213 L 443,212 L 444,211 L 445,211 L 446,210 L 446,209 L 448,207 L 449,207 L 449,206 L 451,204 L 452,204 L 452,203 L 453,202 L 454,202 L 455,201 L 455,200 L 461,194 L 462,194 L 463,193 L 463,192 L 464,191 L 465,191 L 466,190 L 466,189 L 467,188 L 468,188 L 469,187 L 469,186 L 471,184 L 472,184 L 472,183 L 473,182 L 474,182 L 474,181 L 484,171 L 485,171 L 486,170 L 486,169 L 488,167 L 489,167 L 489,166 L 498,157 L 499,157 L 500,156 L 500,155 L 502,153 L 503,153 L 507,149 L 507,148 L 510,145 L 511,145 L 511,131 L 509,131 L 506,128 L 505,128 L 504,127 L 503,127 L 502,126 Z" fill="#801446" /><path d="M 237,126 L 236,127 L 235,127 L 235,128 L 233,130 L 232,130 L 231,131 L 230,131 L 193,168 L 193,169 L 192,170 L 192,171 L 191,172 L 191,175 L 192,176 L 192,177 L 241,226 L 242,226 L 243,227 L 244,227 L 245,228 L 246,228 L 247,227 L 248,227 L 249,226 L 249,225 L 250,224 L 251,224 L 252,223 L 252,222 L 264,210 L 265,210 L 272,203 L 272,202 L 281,193 L 282,193 L 289,186 L 289,185 L 298,176 L 299,176 L 303,172 L 303,171 L 327,147 L 328,147 L 329,146 L 329,145 L 330,144 L 331,144 L 334,141 L 333,140 L 333,139 L 335,137 L 335,136 L 333,134 L 333,133 L 328,128 L 328,127 L 327,126 Z" fill="#801446" /><path d="M 150,126 L 147,129 L 147,132 L 165,150 L 166,150 L 167,151 L 168,151 L 169,152 L 171,152 L 176,147 L 176,146 L 178,144 L 179,144 L 182,141 L 182,139 L 183,138 L 183,134 L 181,132 L 181,131 L 179,129 L 178,129 L 177,128 L 176,128 L 175,127 L 174,127 L 173,126 Z" fill="#801446" /><path d="M 7,126 L 6,127 L 5,127 L 1,131 L 0,131 L 0,146 L 1,147 L 2,147 L 8,153 L 8,154 L 9,155 L 10,155 L 13,158 L 13,159 L 43,189 L 44,189 L 45,190 L 45,191 L 69,215 L 70,215 L 71,216 L 71,217 L 86,232 L 87,232 L 88,233 L 88,234 L 89,235 L 90,235 L 91,236 L 91,237 L 103,249 L 104,249 L 105,250 L 105,251 L 106,252 L 107,252 L 108,253 L 108,254 L 109,255 L 110,255 L 111,256 L 111,257 L 112,258 L 113,258 L 114,259 L 114,260 L 120,266 L 121,266 L 122,267 L 122,268 L 123,269 L 124,269 L 125,270 L 125,271 L 126,272 L 127,272 L 128,273 L 128,274 L 129,275 L 130,275 L 131,276 L 131,277 L 132,278 L 133,278 L 134,279 L 134,280 L 135,281 L 136,281 L 137,282 L 137,283 L 143,289 L 144,289 L 145,290 L 145,291 L 146,292 L 147,292 L 148,293 L 148,294 L 149,295 L 150,295 L 151,296 L 151,297 L 152,298 L 153,298 L 154,299 L 154,300 L 160,306 L 161,306 L 162,307 L 162,308 L 163,309 L 164,309 L 165,310 L 165,311 L 166,312 L 167,312 L 168,313 L 168,314 L 169,315 L 170,315 L 171,316 L 171,317 L 179,325 L 180,325 L 182,327 L 182,328 L 183,329 L 184,329 L 185,330 L 185,331 L 186,332 L 187,332 L 188,333 L 188,334 L 189,335 L 190,335 L 191,336 L 191,337 L 192,338 L 193,338 L 194,339 L 194,340 L 196,342 L 197,342 L 198,343 L 198,344 L 199,345 L 200,345 L 202,347 L 202,348 L 203,349 L 204,349 L 205,350 L 205,351 L 206,352 L 207,352 L 208,353 L 208,354 L 209,355 L 210,355 L 211,356 L 211,357 L 212,358 L 213,358 L 215,360 L 215,361 L 216,362 L 217,362 L 219,364 L 219,365 L 220,365 L 222,367 L 222,368 L 223,369 L 224,369 L 227,372 L 227,373 L 228,374 L 229,374 L 231,376 L 232,376 L 235,379 L 237,379 L 239,381 L 243,381 L 244,382 L 245,382 L 246,383 L 247,382 L 248,382 L 249,383 L 250,383 L 251,384 L 262,384 L 264,382 L 270,382 L 272,380 L 273,380 L 274,379 L 275,379 L 276,378 L 277,378 L 280,375 L 281,375 L 283,373 L 284,373 L 285,372 L 286,372 L 297,361 L 297,360 L 308,349 L 309,349 L 314,344 L 314,343 L 331,326 L 332,326 L 333,325 L 333,324 L 347,310 L 348,310 L 349,309 L 349,306 L 347,304 L 343,304 L 342,305 L 338,305 L 336,307 L 328,307 L 327,306 L 324,306 L 323,305 L 321,305 L 320,306 L 318,304 L 314,304 L 312,302 L 309,302 L 308,301 L 307,301 L 304,298 L 302,298 L 301,297 L 300,297 L 265,262 L 265,261 L 264,260 L 263,260 L 251,248 L 251,247 L 250,246 L 249,246 L 234,231 L 234,230 L 233,229 L 232,229 L 209,206 L 209,205 L 206,202 L 205,202 L 194,191 L 194,190 L 190,186 L 189,186 L 180,177 L 180,176 L 178,174 L 177,174 L 153,150 L 153,149 L 152,149 L 149,146 L 149,145 L 148,145 L 139,136 L 139,135 L 138,134 L 137,134 L 136,133 L 136,132 L 135,132 L 133,130 L 133,129 L 131,127 L 129,127 L 128,126 Z" fill="#801446" /></svg>