<?xml version="1.0" encoding="utf-8" ?>
<svg baseProfile="full" height="512" version="1.1" width="512" xmlns="http://www.w3.org/2000/svg" xmlns:ev="http://www.w3.org/2001/xml-events" xmlns:xlink="http://www.w3.org/1999/xlink"><title>Value Evolved Logo</title><defs /><path d="M 390,0 L 390,2 L 388,4 L 388,7 L 385,10 L 385,11 L 384,12 L 384,14 L 382,16 L 382,17 L 381,18 L 381,20 L 379,22 L 379,23 L 378,24 L 378,26 L 377,27 L 377,28 L 376,29 L 376,30 L 374,32 L 374,33 L 373,34 L 373,35 L 372,36 L 372,37 L 371,38 L 371,39 L 370,40 L 370,41 L 369,42 L 369,45 L 368,46 L 368,47 L 367,48 L 367,49 L 366,50 L 366,51 L 365,52 L 365,53 L 364,54 L 364,55 L 363,56 L 363,57 L 362,58 L 362,59 L 361,60 L 361,61 L 360,62 L 360,63 L 359,64 L 359,65 L 358,66 L 358,67 L 357,68 L 357,69 L 356,70 L 356,71 L 355,72 L 355,73 L 354,74 L 354,75 L 353,76 L 353,77 L 352,78 L 352,79 L 351,80 L 351,82 L 350,83 L 350,84 L 349,85 L 349,86 L 347,88 L 347,89 L 346,90 L 346,91 L 345,92 L 345,93 L 344,94 L 344,95 L 343,96 L 343,98 L 341,100 L 341,101 L 340,102 L 340,103 L 339,104 L 339,105 L 338,106 L 338,107 L 337,108 L 337,109 L 335,111 L 335,112 L 334,113 L 334,115 L 332,117 L 332,118 L 331,119 L 331,120 L 330,121 L 330,122 L 329,123 L 329,124 L 328,125 L 328,126 L 327,127 L 327,128 L 326,129 L 326,130 L 325,131 L 325,132 L 324,133 L 324,134 L 323,135 L 323,136 L 322,137 L 322,138 L 321,139 L 321,140 L 320,141 L 320,142 L 319,143 L 319,144 L 318,145 L 318,146 L 317,147 L 317,148 L 316,149 L 316,150 L 315,151 L 315,152 L 314,153 L 314,154 L 313,155 L 313,156 L 312,157 L 312,158 L 311,159 L 311,160 L 310,161 L 310,165 L 309,166 L 309,167 L 307,169 L 307,170 L 306,171 L 306,172 L 305,173 L 305,174 L 304,175 L 304,176 L 303,177 L 303,178 L 302,179 L 302,180 L 301,181 L 301,182 L 300,183 L 300,185 L 298,187 L 298,188 L 297,189 L 297,190 L 295,192 L 295,193 L 294,194 L 294,197 L 291,200 L 291,201 L 290,202 L 290,203 L 289,204 L 289,206 L 287,208 L 287,209 L 286,210 L 286,211 L 285,212 L 285,213 L 284,214 L 284,215 L 283,216 L 283,217 L 282,218 L 282,219 L 281,220 L 281,221 L 280,222 L 280,223 L 279,224 L 279,225 L 278,226 L 278,227 L 277,228 L 277,229 L 276,230 L 276,231 L 275,232 L 275,233 L 274,234 L 274,235 L 273,236 L 273,238 L 271,240 L 271,244 L 269,246 L 269,252 L 270,253 L 270,254 L 271,255 L 271,256 L 272,257 L 272,258 L 273,259 L 273,260 L 275,262 L 275,264 L 276,265 L 276,266 L 278,268 L 278,269 L 279,270 L 279,271 L 280,272 L 280,273 L 281,274 L 281,275 L 282,276 L 282,277 L 283,278 L 283,279 L 284,280 L 284,282 L 286,284 L 286,286 L 287,287 L 287,288 L 289,290 L 289,291 L 290,292 L 290,293 L 291,294 L 291,295 L 292,296 L 292,297 L 293,298 L 293,299 L 294,300 L 294,302 L 295,303 L 295,304 L 297,306 L 297,309 L 298,310 L 298,311 L 300,313 L 300,315 L 301,316 L 301,317 L 303,319 L 304,319 L 305,320 L 305,323 L 307,325 L 308,325 L 310,327 L 310,328 L 313,331 L 313,332 L 316,335 L 317,335 L 322,340 L 324,340 L 326,342 L 328,342 L 329,343 L 330,343 L 331,344 L 332,343 L 337,343 L 338,344 L 340,344 L 341,343 L 342,343 L 343,342 L 345,342 L 347,340 L 349,340 L 351,338 L 352,338 L 356,334 L 356,333 L 360,329 L 361,329 L 362,328 L 362,326 L 365,323 L 366,323 L 368,321 L 368,319 L 369,318 L 369,317 L 372,314 L 371,313 L 371,312 L 372,311 L 372,310 L 373,309 L 373,308 L 375,306 L 375,305 L 376,304 L 376,302 L 378,300 L 378,299 L 379,298 L 379,297 L 380,296 L 380,295 L 381,294 L 381,293 L 382,292 L 382,290 L 384,288 L 384,287 L 385,286 L 385,284 L 386,283 L 387,283 L 387,281 L 388,280 L 388,279 L 390,277 L 390,276 L 391,275 L 391,274 L 392,273 L 392,272 L 393,271 L 393,270 L 394,269 L 394,268 L 395,267 L 395,266 L 396,265 L 396,264 L 397,263 L 397,262 L 398,261 L 398,260 L 399,259 L 399,258 L 400,257 L 400,255 L 402,253 L 402,252 L 403,251 L 403,249 L 405,247 L 405,246 L 406,245 L 406,243 L 408,241 L 408,240 L 409,239 L 409,237 L 411,235 L 411,231 L 412,230 L 412,229 L 413,228 L 413,227 L 415,225 L 415,224 L 416,223 L 416,222 L 417,221 L 417,220 L 418,219 L 418,218 L 419,217 L 419,216 L 420,215 L 420,214 L 421,213 L 421,212 L 422,211 L 422,209 L 424,207 L 424,204 L 428,200 L 428,199 L 429,198 L 429,197 L 430,196 L 430,195 L 431,194 L 431,193 L 432,192 L 432,190 L 434,188 L 434,187 L 435,186 L 435,185 L 436,184 L 436,183 L 437,182 L 437,181 L 438,180 L 438,179 L 439,178 L 439,177 L 440,176 L 440,175 L 441,174 L 441,173 L 442,172 L 442,171 L 443,170 L 443,169 L 444,168 L 444,167 L 445,166 L 445,165 L 446,164 L 446,162 L 448,160 L 448,159 L 449,158 L 448,157 L 448,156 L 450,154 L 450,153 L 451,152 L 451,151 L 452,150 L 452,149 L 453,148 L 453,146 L 455,144 L 455,143 L 456,142 L 456,141 L 457,140 L 457,139 L 458,138 L 458,137 L 459,136 L 459,135 L 460,134 L 460,133 L 461,132 L 461,131 L 462,130 L 462,128 L 465,125 L 465,122 L 466,121 L 467,121 L 467,120 L 468,119 L 468,118 L 469,117 L 469,116 L 470,115 L 470,113 L 472,111 L 472,110 L 473,109 L 473,108 L 474,107 L 474,106 L 475,105 L 475,104 L 476,103 L 476,102 L 477,101 L 477,100 L 478,99 L 478,98 L 479,97 L 479,96 L 480,95 L 480,94 L 481,93 L 481,92 L 482,91 L 482,90 L 483,89 L 483,88 L 484,87 L 484,86 L 485,85 L 485,84 L 486,83 L 486,82 L 487,81 L 487,80 L 488,79 L 488,75 L 489,74 L 490,74 L 490,71 L 492,69 L 492,68 L 493,67 L 493,65 L 495,63 L 495,62 L 496,61 L 496,60 L 497,59 L 497,58 L 498,57 L 498,56 L 499,55 L 499,53 L 500,52 L 500,51 L 502,49 L 502,48 L 504,46 L 504,42 L 505,41 L 506,41 L 506,40 L 507,39 L 507,37 L 509,35 L 509,33 L 510,32 L 511,32 L 511,4 L 509,4 L 507,2 L 507,0 Z" fill="#801446" /><path d="M 232,0 L 232,2 L 230,4 L 230,5 L 229,6 L 229,8 L 227,10 L 227,11 L 226,12 L 226,13 L 224,15 L 224,18 L 221,21 L 221,23 L 219,25 L 219,27 L 217,29 L 217,30 L 216,31 L 216,32 L 215,33 L 215,34 L 214,35 L 214,36 L 213,37 L 213,38 L 212,39 L 212,40 L 211,41 L 211,42 L 210,43 L 210,46 L 209,47 L 209,48 L 208,49 L 208,50 L 207,51 L 207,52 L 206,53 L 206,54 L 204,56 L 204,57 L 203,58 L 203,60 L 201,62 L 201,63 L 200,64 L 200,66 L 198,68 L 198,69 L 197,70 L 197,72 L 195,74 L 195,76 L 194,77 L 194,78 L 193,79 L 193,80 L 192,81 L 192,83 L 191,84 L 191,86 L 190,87 L 190,91 L 191,92 L 191,93 L 192,94 L 192,95 L 193,96 L 193,97 L 194,98 L 194,99 L 195,100 L 195,102 L 196,103 L 196,104 L 198,106 L 198,108 L 199,109 L 199,110 L 201,112 L 201,113 L 202,114 L 202,115 L 203,116 L 203,117 L 204,118 L 204,119 L 205,120 L 205,121 L 206,122 L 206,123 L 207,124 L 207,125 L 208,126 L 208,127 L 209,128 L 209,129 L 210,130 L 210,131 L 211,132 L 211,133 L 212,134 L 212,135 L 213,136 L 213,137 L 214,138 L 214,140 L 215,141 L 215,142 L 217,144 L 217,145 L 218,146 L 218,147 L 219,148 L 219,149 L 220,150 L 220,153 L 221,154 L 221,155 L 222,156 L 222,157 L 223,158 L 223,159 L 224,160 L 224,161 L 225,162 L 225,163 L 226,164 L 226,165 L 228,167 L 228,168 L 229,169 L 229,171 L 230,172 L 230,173 L 232,175 L 232,176 L 233,177 L 233,178 L 234,179 L 234,180 L 235,181 L 235,182 L 236,183 L 236,184 L 237,185 L 237,186 L 238,187 L 238,188 L 239,189 L 239,190 L 240,191 L 240,192 L 241,193 L 241,194 L 245,198 L 246,198 L 247,197 L 248,197 L 249,196 L 249,195 L 250,194 L 250,193 L 251,192 L 251,189 L 252,188 L 252,187 L 253,186 L 253,185 L 254,184 L 254,183 L 255,182 L 255,181 L 256,180 L 256,179 L 257,178 L 257,175 L 260,172 L 260,171 L 261,170 L 261,169 L 262,168 L 262,167 L 263,166 L 263,165 L 264,164 L 264,163 L 265,162 L 265,161 L 266,160 L 266,159 L 267,158 L 267,157 L 268,156 L 268,155 L 269,154 L 269,153 L 270,152 L 270,151 L 271,150 L 271,149 L 272,148 L 272,147 L 273,146 L 273,145 L 274,144 L 274,143 L 275,142 L 275,141 L 276,140 L 276,139 L 277,138 L 277,137 L 279,135 L 279,133 L 280,132 L 280,130 L 283,127 L 283,126 L 284,125 L 284,124 L 285,123 L 285,122 L 286,121 L 286,120 L 287,119 L 287,118 L 288,117 L 288,116 L 289,115 L 289,112 L 290,111 L 290,110 L 291,109 L 291,108 L 292,107 L 292,106 L 293,105 L 293,104 L 294,103 L 294,102 L 295,101 L 295,100 L 296,99 L 296,98 L 297,97 L 297,94 L 298,93 L 299,93 L 300,92 L 300,88 L 303,85 L 303,82 L 306,79 L 306,76 L 309,73 L 309,72 L 310,71 L 310,70 L 311,69 L 311,68 L 312,67 L 312,66 L 313,65 L 313,64 L 314,63 L 314,62 L 315,61 L 315,60 L 316,59 L 316,58 L 317,57 L 317,56 L 319,54 L 319,53 L 320,52 L 320,51 L 321,50 L 321,48 L 323,46 L 323,45 L 324,44 L 324,43 L 323,42 L 324,41 L 325,41 L 326,40 L 326,39 L 327,38 L 327,37 L 328,36 L 328,35 L 329,34 L 329,31 L 330,30 L 330,29 L 331,28 L 331,27 L 332,26 L 332,25 L 333,24 L 333,21 L 334,20 L 334,19 L 335,18 L 335,13 L 333,11 L 333,10 L 334,9 L 334,8 L 333,7 L 333,5 L 329,1 L 329,0 Z" fill="#801446" /><path d="M 146,0 L 146,3 L 147,4 L 147,5 L 148,6 L 148,7 L 149,8 L 149,9 L 150,10 L 150,11 L 151,12 L 151,13 L 153,15 L 153,16 L 154,16 L 155,17 L 155,21 L 156,22 L 157,22 L 158,23 L 158,27 L 161,30 L 161,33 L 162,34 L 162,35 L 163,35 L 164,36 L 164,39 L 165,40 L 165,41 L 166,41 L 168,43 L 168,44 L 170,44 L 173,41 L 173,40 L 174,39 L 174,38 L 175,37 L 175,36 L 176,35 L 176,34 L 177,33 L 177,31 L 179,29 L 179,28 L 180,27 L 180,24 L 182,22 L 182,21 L 183,20 L 183,10 L 182,9 L 182,8 L 181,7 L 181,5 L 177,1 L 177,0 Z" fill="#801446" /><path d="M 3,0 L 3,1 L 1,3 L 0,3 L 0,34 L 1,35 L 1,36 L 3,38 L 3,40 L 5,42 L 5,44 L 7,46 L 7,47 L 8,48 L 8,51 L 10,53 L 10,55 L 12,57 L 12,58 L 13,59 L 13,61 L 14,62 L 14,63 L 15,64 L 15,65 L 16,66 L 16,67 L 17,67 L 18,68 L 18,71 L 19,72 L 19,73 L 20,73 L 21,74 L 21,77 L 22,78 L 22,79 L 23,79 L 24,80 L 24,83 L 27,86 L 27,87 L 28,88 L 28,89 L 29,90 L 29,92 L 30,93 L 30,94 L 32,96 L 32,98 L 33,99 L 33,100 L 35,102 L 35,104 L 36,105 L 36,106 L 38,108 L 38,110 L 39,111 L 39,112 L 40,113 L 40,116 L 41,117 L 41,118 L 42,119 L 42,120 L 44,122 L 44,124 L 46,126 L 46,127 L 47,128 L 47,130 L 49,132 L 49,133 L 50,134 L 50,136 L 51,137 L 51,138 L 52,139 L 52,140 L 53,141 L 53,142 L 55,144 L 55,146 L 56,147 L 56,148 L 57,148 L 58,149 L 58,152 L 59,153 L 59,154 L 60,154 L 61,155 L 61,158 L 62,159 L 62,160 L 63,160 L 64,161 L 64,164 L 67,167 L 67,168 L 68,169 L 68,170 L 69,171 L 69,172 L 70,173 L 70,174 L 71,175 L 71,177 L 72,178 L 72,179 L 73,180 L 73,181 L 74,182 L 74,183 L 75,184 L 75,185 L 76,186 L 76,187 L 78,189 L 77,190 L 77,191 L 80,194 L 80,197 L 81,198 L 81,199 L 82,200 L 82,201 L 83,202 L 83,203 L 84,204 L 84,205 L 85,206 L 85,207 L 86,208 L 86,209 L 87,210 L 87,211 L 88,212 L 88,213 L 89,214 L 89,215 L 90,216 L 90,217 L 91,218 L 91,219 L 92,220 L 92,221 L 93,222 L 93,223 L 94,223 L 95,224 L 95,227 L 98,230 L 98,233 L 99,234 L 99,235 L 100,235 L 101,236 L 101,239 L 102,240 L 102,241 L 103,241 L 105,243 L 105,245 L 106,246 L 106,248 L 107,249 L 107,250 L 109,252 L 109,254 L 110,255 L 110,256 L 112,258 L 112,260 L 113,261 L 113,262 L 115,264 L 115,266 L 116,267 L 116,268 L 117,269 L 117,272 L 119,274 L 119,276 L 120,277 L 120,278 L 121,279 L 121,280 L 122,281 L 122,282 L 124,284 L 124,286 L 125,287 L 125,288 L 126,289 L 126,290 L 127,291 L 127,292 L 128,293 L 128,294 L 129,295 L 129,296 L 130,297 L 130,298 L 131,299 L 131,300 L 132,301 L 132,302 L 135,305 L 135,308 L 138,311 L 138,314 L 141,317 L 141,320 L 145,324 L 145,326 L 146,327 L 146,329 L 147,330 L 147,331 L 149,333 L 149,335 L 150,336 L 150,337 L 151,338 L 151,339 L 152,340 L 152,341 L 153,342 L 153,343 L 155,345 L 155,347 L 156,348 L 156,349 L 157,350 L 157,351 L 158,352 L 158,355 L 159,356 L 159,357 L 160,358 L 160,359 L 161,360 L 161,361 L 162,362 L 162,363 L 163,364 L 163,365 L 165,367 L 165,369 L 166,370 L 166,371 L 167,372 L 168,372 L 169,373 L 169,377 L 170,378 L 170,379 L 171,379 L 172,380 L 172,383 L 173,384 L 173,385 L 175,387 L 175,389 L 176,390 L 176,391 L 177,392 L 177,393 L 178,394 L 178,395 L 179,396 L 179,397 L 180,398 L 180,399 L 183,402 L 183,404 L 184,405 L 184,406 L 186,408 L 186,410 L 187,411 L 187,412 L 189,414 L 189,416 L 190,417 L 190,418 L 192,420 L 192,422 L 193,423 L 193,424 L 195,426 L 195,428 L 196,429 L 196,432 L 197,433 L 197,434 L 199,436 L 199,438 L 200,439 L 200,440 L 202,442 L 202,444 L 203,445 L 203,446 L 205,448 L 205,450 L 206,451 L 206,452 L 208,454 L 208,456 L 209,457 L 209,458 L 211,460 L 211,462 L 212,463 L 212,464 L 214,466 L 214,467 L 215,468 L 215,470 L 216,471 L 216,472 L 217,473 L 217,474 L 221,478 L 221,482 L 222,482 L 224,484 L 224,485 L 225,486 L 225,488 L 227,490 L 227,493 L 228,494 L 229,494 L 233,498 L 233,499 L 235,501 L 235,502 L 236,502 L 241,507 L 242,507 L 243,508 L 243,509 L 244,509 L 245,510 L 246,510 L 247,511 L 267,511 L 267,509 L 268,508 L 269,508 L 270,507 L 271,507 L 276,502 L 277,502 L 279,500 L 279,499 L 283,495 L 283,494 L 284,493 L 284,492 L 286,490 L 286,489 L 287,488 L 287,487 L 288,486 L 288,485 L 289,484 L 289,483 L 290,482 L 290,479 L 291,478 L 292,478 L 293,477 L 293,476 L 294,475 L 294,473 L 296,471 L 296,470 L 297,469 L 297,468 L 298,467 L 298,465 L 300,463 L 300,462 L 301,461 L 301,459 L 303,457 L 303,456 L 304,455 L 304,454 L 305,453 L 305,452 L 306,451 L 306,450 L 307,449 L 307,448 L 308,447 L 308,446 L 309,445 L 309,444 L 310,443 L 310,442 L 311,441 L 311,440 L 312,439 L 312,438 L 313,437 L 313,436 L 314,435 L 314,434 L 315,433 L 315,432 L 314,431 L 316,429 L 316,428 L 317,427 L 317,425 L 318,424 L 318,423 L 319,422 L 319,421 L 320,420 L 320,419 L 321,418 L 321,417 L 322,416 L 322,415 L 324,413 L 324,412 L 325,411 L 325,409 L 327,407 L 327,405 L 328,404 L 328,403 L 330,401 L 330,400 L 331,399 L 331,398 L 333,396 L 333,395 L 334,394 L 334,392 L 336,390 L 336,389 L 337,388 L 337,387 L 338,386 L 338,385 L 339,384 L 339,383 L 340,382 L 340,381 L 341,380 L 341,379 L 342,378 L 342,377 L 343,376 L 343,375 L 344,374 L 344,373 L 345,372 L 345,371 L 346,370 L 346,369 L 347,368 L 347,367 L 348,366 L 348,365 L 349,364 L 349,363 L 350,362 L 350,361 L 351,360 L 351,359 L 348,356 L 346,356 L 344,358 L 343,358 L 342,359 L 341,359 L 339,361 L 334,361 L 332,363 L 329,363 L 327,361 L 322,361 L 320,359 L 319,359 L 318,358 L 317,358 L 315,356 L 313,356 L 306,349 L 306,348 L 305,347 L 305,346 L 304,345 L 303,345 L 301,343 L 301,340 L 300,339 L 300,338 L 299,337 L 299,336 L 297,334 L 297,333 L 296,332 L 296,331 L 295,330 L 295,329 L 294,328 L 294,327 L 293,326 L 293,325 L 292,324 L 292,323 L 291,322 L 291,321 L 290,320 L 290,319 L 289,318 L 289,315 L 287,313 L 286,313 L 285,312 L 285,311 L 286,310 L 286,309 L 284,307 L 283,307 L 282,306 L 282,303 L 280,301 L 280,298 L 278,296 L 278,295 L 277,294 L 277,292 L 275,290 L 275,287 L 272,284 L 272,281 L 271,280 L 271,279 L 270,279 L 268,277 L 269,276 L 269,275 L 268,274 L 268,273 L 267,273 L 265,271 L 266,270 L 266,269 L 265,268 L 265,267 L 264,267 L 262,265 L 262,261 L 261,260 L 261,259 L 259,257 L 259,256 L 258,255 L 258,254 L 257,253 L 257,252 L 256,251 L 256,250 L 255,249 L 255,248 L 254,247 L 254,246 L 253,245 L 253,244 L 252,243 L 252,242 L 251,241 L 251,240 L 248,237 L 248,234 L 245,231 L 245,228 L 244,227 L 244,226 L 243,226 L 242,225 L 242,222 L 239,219 L 239,216 L 236,213 L 236,210 L 235,209 L 235,208 L 234,207 L 234,206 L 233,205 L 233,202 L 232,201 L 232,200 L 231,199 L 231,198 L 230,197 L 230,196 L 229,195 L 229,194 L 228,193 L 228,192 L 227,191 L 227,190 L 226,189 L 226,188 L 224,186 L 224,185 L 223,184 L 223,183 L 222,182 L 222,181 L 220,179 L 220,177 L 219,176 L 219,175 L 218,174 L 218,173 L 217,172 L 217,171 L 216,170 L 216,169 L 215,168 L 215,167 L 214,166 L 214,165 L 213,164 L 213,163 L 212,162 L 212,161 L 211,160 L 211,159 L 210,158 L 210,157 L 209,156 L 209,155 L 208,154 L 208,153 L 207,152 L 207,151 L 206,150 L 206,149 L 205,148 L 205,147 L 204,146 L 204,145 L 203,144 L 203,143 L 202,142 L 202,141 L 201,140 L 201,139 L 200,138 L 200,137 L 199,136 L 199,135 L 198,134 L 198,133 L 197,132 L 197,131 L 196,130 L 196,129 L 195,128 L 195,127 L 194,126 L 194,123 L 193,122 L 193,121 L 191,119 L 191,117 L 190,116 L 190,115 L 189,114 L 189,113 L 188,112 L 188,111 L 187,110 L 187,109 L 185,107 L 185,106 L 184,105 L 184,104 L 183,103 L 183,101 L 181,99 L 181,98 L 180,97 L 180,96 L 179,95 L 179,94 L 177,92 L 177,91 L 176,90 L 176,89 L 175,88 L 175,85 L 174,84 L 174,83 L 173,82 L 173,80 L 172,79 L 172,78 L 171,77 L 171,76 L 170,75 L 170,74 L 169,73 L 169,72 L 168,71 L 168,70 L 167,69 L 167,68 L 166,67 L 166,66 L 165,65 L 165,64 L 164,63 L 164,62 L 163,61 L 163,60 L 162,59 L 162,58 L 161,57 L 161,56 L 160,55 L 160,54 L 159,53 L 159,52 L 157,50 L 157,48 L 156,47 L 156,46 L 155,45 L 155,44 L 154,43 L 154,42 L 152,40 L 152,38 L 149,35 L 149,32 L 147,30 L 147,29 L 146,28 L 146,27 L 145,26 L 145,25 L 144,24 L 144,23 L 143,22 L 143,21 L 142,20 L 142,19 L 141,18 L 141,17 L 140,16 L 140,15 L 139,14 L 139,13 L 137,11 L 137,10 L 136,9 L 136,8 L 135,7 L 135,5 L 134,4 L 134,3 L 132,1 L 132,0 Z" fill="#801446" /></svg>