<?xml version="1.0" encoding="utf-8" ?>
<svg baseProfile="tiny" height="2048" version="1.2" width="2048" xmlns="http://www.w3.org/2000/svg" xmlns:ev="http://www.w3.org/2001/xml-events" xmlns:xlink="http://www.w3.org/1999/xlink"><defs /><path d="M 1577,518 L 1576,519 L 1575,519 L 1575,521 L 1574,522 L 1572,522 L 1572,523 L 1571,524 L 1570,524 L 1570,526 L 1569,527 L 1567,527 L 1567,528 L 1566,529 L 1565,529 L 1565,530 L 1563,532 L 1562,532 L 1562,533 L 1561,534 L 1560,534 L 1560,535 L 1559,536 L 1558,536 L 1558,538 L 1557,539 L 1555,539 L 1555,540 L 1554,541 L 1553,541 L 1553,543 L 1552,544 L 1550,544 L 1550,545 L 1549,546 L 1548,546 L 1548,548 L 1547,549 L 1545,549 L 1545,550 L 1544,551 L 1543,551 L 1543,552 L 1542,553 L 1541,553 L 1541,555 L 1540,556 L 1538,556 L 1538,557 L 1537,558 L 1536,558 L 1536,560 L 1535,561 L 1533,561 L 1533,562 L 1532,563 L 1531,563 L 1531,565 L 1530,566 L 1528,566 L 1528,567 L 1527,568 L 1526,568 L 1526,569 L 1522,573 L 1521,573 L 1521,574 L 1519,576 L 1519,577 L 1518,578 L 1516,578 L 1516,579 L 1515,580 L 1514,580 L 1514,582 L 1513,583 L 1511,583 L 1511,584 L 1510,585 L 1509,585 L 1509,587 L 1508,588 L 1506,588 L 1506,589 L 1505,590 L 1504,590 L 1504,591 L 1502,593 L 1502,594 L 1501,595 L 1499,595 L 1499,596 L 1497,598 L 1497,599 L 1496,600 L 1494,600 L 1494,601 L 1493,602 L 1492,602 L 1492,604 L 1491,605 L 1489,605 L 1489,606 L 1488,607 L 1487,607 L 1487,608 L 1485,610 L 1485,611 L 1484,612 L 1482,612 L 1482,613 L 1480,615 L 1480,616 L 1479,617 L 1477,617 L 1477,618 L 1475,620 L 1475,621 L 1474,622 L 1472,622 L 1472,623 L 1471,624 L 1470,624 L 1470,626 L 1469,627 L 1468,627 L 1466,629 L 1465,629 L 1465,630 L 1463,632 L 1463,633 L 1462,634 L 1460,634 L 1460,635 L 1458,637 L 1458,638 L 1457,639 L 1455,639 L 1455,640 L 1451,644 L 1450,644 L 1450,645 L 1449,646 L 1448,646 L 1448,647 L 1446,649 L 1446,650 L 1445,651 L 1443,651 L 1443,652 L 1439,656 L 1438,656 L 1438,657 L 1436,659 L 1436,660 L 1435,661 L 1433,661 L 1433,662 L 1429,666 L 1429,667 L 1428,668 L 1427,668 L 1424,671 L 1424,672 L 1423,673 L 1421,673 L 1421,674 L 1417,678 L 1416,678 L 1416,679 L 1407,688 L 1407,689 L 1406,690 L 1405,690 L 1400,695 L 1399,695 L 1399,696 L 1395,700 L 1394,700 L 1394,701 L 1390,705 L 1390,706 L 1389,707 L 1388,707 L 1385,710 L 1385,711 L 1384,712 L 1383,712 L 1383,713 L 1382,714 L 1381,714 L 1378,717 L 1377,717 L 1377,718 L 1368,727 L 1368,728 L 1367,729 L 1366,729 L 1361,734 L 1361,735 L 1360,736 L 1359,736 L 1350,745 L 1349,745 L 1349,746 L 1346,749 L 1346,750 L 1345,751 L 1344,751 L 1344,752 L 1343,753 L 1342,753 L 1339,756 L 1339,757 L 1338,758 L 1337,758 L 1328,767 L 1327,767 L 1327,769 L 1326,770 L 1325,770 L 1322,773 L 1322,774 L 1321,775 L 1320,775 L 1317,778 L 1317,779 L 1316,780 L 1315,780 L 1315,781 L 1314,782 L 1313,782 L 1311,784 L 1310,784 L 1310,785 L 1306,789 L 1305,789 L 1305,791 L 1304,792 L 1303,792 L 1300,795 L 1300,796 L 1299,797 L 1298,797 L 1298,798 L 1297,799 L 1296,799 L 1293,802 L 1293,803 L 1292,804 L 1291,804 L 1289,806 L 1288,806 L 1288,808 L 1287,809 L 1286,809 L 1284,811 L 1283,811 L 1283,813 L 1282,814 L 1281,814 L 1281,815 L 1280,816 L 1279,816 L 1278,817 L 1278,818 L 1277,819 L 1276,819 L 1276,820 L 1275,821 L 1274,821 L 1272,823 L 1271,823 L 1271,825 L 1270,826 L 1269,826 L 1267,828 L 1266,828 L 1266,830 L 1265,831 L 1264,831 L 1262,833 L 1261,833 L 1261,835 L 1260,836 L 1259,836 L 1259,837 L 1258,838 L 1256,838 L 1256,839 L 1254,841 L 1254,842 L 1253,843 L 1252,843 L 1250,845 L 1249,845 L 1249,847 L 1248,848 L 1247,848 L 1245,850 L 1244,850 L 1244,852 L 1243,853 L 1242,853 L 1242,854 L 1241,855 L 1239,855 L 1239,857 L 1238,858 L 1237,858 L 1237,859 L 1236,860 L 1234,860 L 1234,861 L 1233,862 L 1232,862 L 1232,864 L 1231,865 L 1230,865 L 1228,867 L 1227,867 L 1227,869 L 1226,870 L 1225,870 L 1225,871 L 1224,872 L 1222,872 L 1222,874 L 1221,875 L 1220,875 L 1220,876 L 1219,877 L 1217,877 L 1217,878 L 1215,880 L 1215,881 L 1214,882 L 1212,882 L 1212,883 L 1211,884 L 1210,884 L 1210,886 L 1209,887 L 1208,887 L 1206,889 L 1205,889 L 1205,891 L 1204,892 L 1203,892 L 1203,893 L 1202,894 L 1200,894 L 1200,896 L 1199,897 L 1198,897 L 1198,898 L 1197,899 L 1195,899 L 1195,900 L 1194,901 L 1193,901 L 1193,903 L 1192,904 L 1190,904 L 1190,905 L 1189,906 L 1188,906 L 1188,908 L 1187,909 L 1186,909 L 1186,910 L 1185,911 L 1183,911 L 1183,913 L 1182,914 L 1181,914 L 1181,915 L 1180,916 L 1178,916 L 1178,917 L 1177,918 L 1176,918 L 1176,920 L 1175,921 L 1173,921 L 1173,922 L 1172,923 L 1171,923 L 1171,925 L 1170,926 L 1169,926 L 1169,927 L 1168,928 L 1166,928 L 1166,930 L 1165,931 L 1164,931 L 1164,932 L 1163,933 L 1161,933 L 1161,934 L 1159,936 L 1159,937 L 1158,938 L 1156,938 L 1156,939 L 1155,940 L 1154,940 L 1154,942 L 1153,943 L 1152,943 L 1150,945 L 1149,945 L 1149,947 L 1148,948 L 1147,948 L 1147,949 L 1146,950 L 1144,950 L 1144,952 L 1143,953 L 1142,953 L 1142,954 L 1141,955 L 1139,955 L 1139,956 L 1138,957 L 1137,957 L 1137,959 L 1136,960 L 1135,960 L 1133,962 L 1132,962 L 1132,964 L 1131,965 L 1130,965 L 1130,966 L 1129,967 L 1127,967 L 1127,969 L 1126,970 L 1125,970 L 1125,971 L 1124,972 L 1122,972 L 1122,973 L 1120,975 L 1120,976 L 1119,977 L 1117,977 L 1117,978 L 1116,979 L 1115,979 L 1115,981 L 1114,982 L 1113,982 L 1113,983 L 1112,984 L 1110,984 L 1110,986 L 1109,987 L 1108,987 L 1108,988 L 1107,989 L 1105,989 L 1105,991 L 1104,992 L 1103,992 L 1103,993 L 1102,994 L 1100,994 L 1100,995 L 1099,996 L 1098,996 L 1098,998 L 1097,999 L 1096,999 L 1094,1001 L 1093,1001 L 1093,1003 L 1092,1004 L 1091,1004 L 1091,1005 L 1090,1006 L 1088,1006 L 1088,1015 L 1090,1015 L 1091,1016 L 1091,1017 L 1092,1017 L 1093,1018 L 1093,1020 L 1094,1020 L 1095,1021 L 1095,1022 L 1097,1022 L 1098,1023 L 1098,1025 L 1099,1025 L 1100,1026 L 1100,1027 L 1102,1027 L 1103,1028 L 1103,1029 L 1104,1029 L 1105,1030 L 1105,1032 L 1107,1032 L 1108,1033 L 1108,1034 L 1109,1034 L 1110,1035 L 1110,1037 L 1111,1037 L 1112,1038 L 1112,1039 L 1114,1039 L 1115,1040 L 1115,1042 L 1116,1042 L 1117,1043 L 1117,1044 L 1119,1044 L 1120,1045 L 1120,1046 L 1121,1046 L 1122,1047 L 1122,1049 L 1124,1049 L 1125,1050 L 1125,1051 L 1126,1051 L 1127,1052 L 1127,1054 L 1128,1054 L 1129,1055 L 1129,1056 L 1131,1056 L 1132,1057 L 1132,1059 L 1133,1059 L 1134,1060 L 1134,1061 L 1136,1061 L 1137,1062 L 1137,1064 L 1138,1064 L 1139,1065 L 1139,1066 L 1141,1066 L 1142,1067 L 1142,1068 L 1143,1068 L 1144,1069 L 1144,1071 L 1146,1071 L 1147,1072 L 1147,1073 L 1148,1073 L 1149,1074 L 1149,1076 L 1150,1076 L 1151,1077 L 1151,1078 L 1153,1078 L 1154,1079 L 1154,1081 L 1155,1081 L 1156,1082 L 1156,1083 L 1158,1083 L 1159,1084 L 1159,1085 L 1160,1085 L 1161,1086 L 1161,1088 L 1163,1088 L 1164,1089 L 1164,1090 L 1165,1090 L 1166,1091 L 1166,1093 L 1167,1093 L 1169,1095 L 1170,1095 L 1171,1096 L 1171,1098 L 1172,1098 L 1173,1099 L 1173,1100 L 1174,1100 L 1176,1102 L 1176,1103 L 1177,1103 L 1178,1104 L 1178,1105 L 1180,1105 L 1181,1106 L 1181,1107 L 1182,1107 L 1183,1108 L 1183,1110 L 1184,1110 L 1188,1114 L 1188,1115 L 1189,1115 L 1190,1116 L 1190,1117 L 1191,1117 L 1193,1119 L 1193,1120 L 1194,1120 L 1195,1121 L 1195,1122 L 1196,1122 L 1198,1124 L 1199,1124 L 1200,1125 L 1200,1127 L 1201,1127 L 1203,1129 L 1204,1129 L 1205,1130 L 1205,1132 L 1206,1132 L 1207,1133 L 1207,1134 L 1208,1134 L 1210,1136 L 1210,1137 L 1211,1137 L 1212,1138 L 1212,1139 L 1213,1139 L 1214,1140 L 1214,1141 L 1215,1142 L 1216,1142 L 1217,1143 L 1217,1144 L 1218,1144 L 1219,1145 L 1219,1146 L 1221,1146 L 1222,1147 L 1222,1149 L 1223,1149 L 1224,1150 L 1224,1151 L 1226,1151 L 1227,1152 L 1227,1154 L 1228,1154 L 1230,1156 L 1233,1156 L 1234,1157 L 1234,1159 L 1235,1159 L 1237,1161 L 1238,1161 L 1239,1162 L 1239,1163 L 1242,1163 L 1243,1164 L 1243,1165 L 1244,1166 L 1245,1166 L 1247,1168 L 1250,1168 L 1251,1169 L 1251,1171 L 1253,1171 L 1254,1172 L 1254,1173 L 1257,1173 L 1259,1175 L 1259,1176 L 1262,1176 L 1264,1178 L 1267,1178 L 1268,1179 L 1268,1180 L 1270,1180 L 1271,1181 L 1272,1181 L 1274,1183 L 1279,1183 L 1280,1184 L 1280,1185 L 1286,1185 L 1287,1186 L 1287,1187 L 1288,1188 L 1294,1188 L 1295,1189 L 1295,1190 L 1303,1190 L 1304,1191 L 1304,1192 L 1305,1193 L 1314,1193 L 1315,1194 L 1315,1195 L 1337,1195 L 1339,1197 L 1339,1198 L 1359,1198 L 1360,1197 L 1360,1196 L 1361,1195 L 1381,1195 L 1383,1193 L 1393,1193 L 1394,1192 L 1394,1191 L 1395,1190 L 1403,1190 L 1405,1188 L 1410,1188 L 1411,1187 L 1411,1186 L 1412,1185 L 1418,1185 L 1418,1184 L 1419,1183 L 1423,1183 L 1423,1182 L 1424,1181 L 1426,1181 L 1427,1180 L 1428,1180 L 1428,1179 L 1429,1178 L 1434,1178 L 1436,1176 L 1437,1176 L 1438,1175 L 1438,1174 L 1439,1173 L 1442,1173 L 1442,1172 L 1443,1171 L 1447,1171 L 1447,1169 L 1448,1168 L 1451,1168 L 1453,1166 L 1454,1166 L 1455,1165 L 1455,1164 L 1456,1163 L 1457,1163 L 1457,1162 L 1458,1161 L 1461,1161 L 1463,1159 L 1464,1159 L 1464,1157 L 1465,1156 L 1467,1156 L 1467,1155 L 1468,1154 L 1471,1154 L 1471,1152 L 1472,1151 L 1473,1151 L 1475,1149 L 1476,1149 L 1476,1148 L 1478,1146 L 1479,1146 L 1479,1145 L 1480,1144 L 1481,1144 L 1481,1142 L 1482,1141 L 1484,1141 L 1484,1140 L 1485,1139 L 1486,1139 L 1486,1138 L 1487,1137 L 1488,1137 L 1489,1136 L 1489,1135 L 1490,1134 L 1491,1134 L 1491,1133 L 1492,1132 L 1493,1132 L 1493,1131 L 1495,1129 L 1496,1129 L 1496,1128 L 1497,1127 L 1498,1127 L 1498,1125 L 1499,1124 L 1500,1124 L 1502,1122 L 1503,1122 L 1503,1121 L 1504,1120 L 1505,1120 L 1506,1119 L 1506,1118 L 1507,1117 L 1508,1117 L 1508,1116 L 1509,1115 L 1510,1115 L 1510,1114 L 1512,1112 L 1513,1112 L 1513,1111 L 1514,1110 L 1515,1110 L 1515,1108 L 1516,1107 L 1517,1107 L 1519,1105 L 1520,1105 L 1520,1104 L 1524,1100 L 1525,1100 L 1525,1099 L 1526,1098 L 1527,1098 L 1527,1097 L 1529,1095 L 1530,1095 L 1530,1094 L 1531,1093 L 1532,1093 L 1532,1091 L 1533,1090 L 1535,1090 L 1535,1089 L 1536,1088 L 1537,1088 L 1537,1086 L 1538,1085 L 1539,1085 L 1541,1083 L 1542,1083 L 1542,1082 L 1543,1081 L 1544,1081 L 1544,1080 L 1546,1078 L 1547,1078 L 1547,1077 L 1548,1076 L 1549,1076 L 1549,1075 L 1551,1073 L 1552,1073 L 1552,1072 L 1553,1071 L 1554,1071 L 1554,1069 L 1555,1068 L 1556,1068 L 1556,1067 L 1557,1066 L 1559,1066 L 1559,1065 L 1560,1064 L 1561,1064 L 1561,1062 L 1562,1061 L 1564,1061 L 1564,1060 L 1565,1059 L 1566,1059 L 1566,1057 L 1567,1056 L 1569,1056 L 1569,1055 L 1570,1054 L 1571,1054 L 1571,1052 L 1572,1051 L 1573,1051 L 1575,1049 L 1576,1049 L 1576,1047 L 1577,1046 L 1578,1046 L 1578,1045 L 1579,1044 L 1581,1044 L 1581,1043 L 1582,1042 L 1583,1042 L 1583,1040 L 1584,1039 L 1586,1039 L 1586,1038 L 1587,1037 L 1588,1037 L 1588,1035 L 1589,1034 L 1591,1034 L 1591,1033 L 1592,1032 L 1593,1032 L 1593,1030 L 1594,1029 L 1595,1029 L 1595,1028 L 1596,1027 L 1598,1027 L 1598,1026 L 1599,1025 L 1600,1025 L 1600,1023 L 1601,1022 L 1603,1022 L 1603,1021 L 1604,1020 L 1605,1020 L 1605,1018 L 1606,1017 L 1608,1017 L 1608,1016 L 1609,1015 L 1610,1015 L 1610,1013 L 1611,1012 L 1612,1012 L 1612,1011 L 1613,1010 L 1615,1010 L 1615,1008 L 1616,1007 L 1617,1007 L 1617,1006 L 1618,1005 L 1620,1005 L 1620,1004 L 1621,1003 L 1622,1003 L 1622,1001 L 1623,1000 L 1625,1000 L 1625,999 L 1626,998 L 1627,998 L 1627,996 L 1628,995 L 1629,995 L 1631,993 L 1632,993 L 1632,991 L 1633,990 L 1634,990 L 1634,989 L 1635,988 L 1637,988 L 1637,987 L 1638,986 L 1639,986 L 1639,984 L 1640,983 L 1642,983 L 1642,982 L 1643,981 L 1644,981 L 1644,979 L 1645,978 L 1647,978 L 1647,977 L 1648,976 L 1649,976 L 1649,974 L 1650,973 L 1651,973 L 1651,972 L 1652,971 L 1654,971 L 1654,969 L 1655,968 L 1656,968 L 1656,967 L 1657,966 L 1659,966 L 1659,965 L 1660,964 L 1661,964 L 1661,962 L 1662,961 L 1664,961 L 1664,960 L 1665,959 L 1666,959 L 1666,957 L 1667,956 L 1668,956 L 1668,955 L 1669,954 L 1671,954 L 1671,952 L 1672,951 L 1673,951 L 1673,950 L 1674,949 L 1676,949 L 1676,948 L 1677,947 L 1678,947 L 1678,945 L 1679,944 L 1681,944 L 1681,943 L 1682,942 L 1683,942 L 1683,941 L 1687,937 L 1688,937 L 1688,936 L 1690,934 L 1690,933 L 1691,932 L 1693,932 L 1693,931 L 1695,929 L 1695,928 L 1696,927 L 1698,927 L 1698,926 L 1699,925 L 1700,925 L 1700,924 L 1702,922 L 1703,922 L 1703,921 L 1704,920 L 1705,920 L 1705,919 L 1707,917 L 1707,916 L 1708,915 L 1710,915 L 1710,914 L 1712,912 L 1712,911 L 1713,910 L 1715,910 L 1715,909 L 1716,908 L 1717,908 L 1717,907 L 1719,905 L 1720,905 L 1720,904 L 1721,903 L 1722,903 L 1722,902 L 1724,900 L 1724,899 L 1725,898 L 1727,898 L 1727,897 L 1729,895 L 1729,894 L 1730,893 L 1732,893 L 1732,892 L 1734,890 L 1734,889 L 1735,888 L 1737,888 L 1737,887 L 1738,886 L 1739,886 L 1739,885 L 1743,881 L 1744,881 L 1744,880 L 1746,878 L 1746,877 L 1747,876 L 1749,876 L 1749,875 L 1751,873 L 1751,872 L 1752,871 L 1754,871 L 1754,870 L 1755,869 L 1756,869 L 1756,868 L 1758,866 L 1759,866 L 1759,865 L 1760,864 L 1761,864 L 1761,863 L 1763,861 L 1763,860 L 1764,859 L 1766,859 L 1766,858 L 1768,856 L 1768,855 L 1769,854 L 1771,854 L 1771,853 L 1773,851 L 1773,850 L 1774,849 L 1776,849 L 1776,848 L 1777,847 L 1778,847 L 1778,846 L 1780,844 L 1780,843 L 1781,842 L 1783,842 L 1783,841 L 1785,839 L 1785,838 L 1786,837 L 1788,837 L 1788,836 L 1790,834 L 1790,833 L 1791,832 L 1792,832 L 1794,830 L 1795,830 L 1795,829 L 1799,825 L 1800,825 L 1800,824 L 1802,822 L 1802,821 L 1803,820 L 1804,820 L 1807,817 L 1807,816 L 1808,815 L 1809,815 L 1811,813 L 1812,813 L 1812,812 L 1814,810 L 1814,809 L 1815,808 L 1816,808 L 1819,805 L 1819,804 L 1820,803 L 1821,803 L 1824,800 L 1824,799 L 1825,798 L 1826,798 L 1828,796 L 1829,796 L 1829,795 L 1830,794 L 1831,794 L 1831,793 L 1833,791 L 1834,791 L 1834,790 L 1836,788 L 1836,787 L 1837,786 L 1838,786 L 1840,784 L 1841,784 L 1841,782 L 1842,781 L 1843,781 L 1846,778 L 1846,777 L 1847,776 L 1848,776 L 1850,774 L 1851,774 L 1851,773 L 1852,772 L 1853,772 L 1853,770 L 1854,769 L 1855,769 L 1858,766 L 1858,765 L 1859,764 L 1860,764 L 1862,762 L 1863,762 L 1863,760 L 1864,759 L 1865,759 L 1869,755 L 1870,755 L 1870,753 L 1871,752 L 1872,752 L 1874,750 L 1875,750 L 1875,748 L 1876,747 L 1877,747 L 1879,745 L 1880,745 L 1880,743 L 1881,742 L 1882,742 L 1884,740 L 1885,740 L 1885,738 L 1886,737 L 1887,737 L 1891,733 L 1892,733 L 1892,731 L 1893,730 L 1894,730 L 1896,728 L 1897,728 L 1897,726 L 1898,725 L 1899,725 L 1901,723 L 1902,723 L 1902,721 L 1903,720 L 1904,720 L 1904,719 L 1905,718 L 1907,718 L 1907,717 L 1908,716 L 1909,716 L 1909,714 L 1910,713 L 1911,713 L 1913,711 L 1914,711 L 1914,709 L 1915,708 L 1916,708 L 1918,706 L 1919,706 L 1919,704 L 1920,703 L 1921,703 L 1923,701 L 1924,701 L 1924,700 L 1926,698 L 1926,697 L 1927,696 L 1928,696 L 1928,695 L 1929,694 L 1931,694 L 1931,692 L 1932,691 L 1933,691 L 1933,690 L 1934,689 L 1936,689 L 1936,687 L 1937,686 L 1938,686 L 1940,684 L 1941,684 L 1941,682 L 1942,681 L 1943,681 L 1943,680 L 1944,679 L 1945,679 L 1947,677 L 1948,677 L 1948,675 L 1949,674 L 1950,674 L 1950,673 L 1951,672 L 1953,672 L 1953,670 L 1954,669 L 1955,669 L 1955,668 L 1956,667 L 1958,667 L 1958,665 L 1959,664 L 1960,664 L 1960,663 L 1961,662 L 1963,662 L 1963,661 L 1965,659 L 1965,658 L 1966,657 L 1967,657 L 1967,656 L 1968,655 L 1970,655 L 1970,653 L 1971,652 L 1972,652 L 1972,651 L 1973,650 L 1975,650 L 1975,648 L 1976,647 L 1977,647 L 1977,646 L 1978,645 L 1980,645 L 1980,643 L 1981,642 L 1982,642 L 1982,641 L 1983,640 L 1984,640 L 1984,639 L 1985,638 L 1987,638 L 1987,636 L 1988,635 L 1989,635 L 1989,634 L 1990,633 L 1992,633 L 1992,631 L 1993,630 L 1994,630 L 1994,629 L 1995,628 L 1997,628 L 1997,626 L 1998,625 L 1999,625 L 1999,624 L 2000,623 L 2001,623 L 2004,620 L 2004,619 L 2005,618 L 2006,618 L 2006,617 L 2007,616 L 2008,616 L 2009,615 L 2009,614 L 2010,613 L 2011,613 L 2011,612 L 2012,611 L 2013,611 L 2014,610 L 2014,609 L 2015,608 L 2016,608 L 2016,604 L 2017,603 L 2019,603 L 2019,602 L 2020,601 L 2021,601 L 2021,600 L 2022,599 L 2023,599 L 2023,597 L 2024,596 L 2026,596 L 2026,595 L 2027,594 L 2028,594 L 2028,592 L 2029,591 L 2031,591 L 2031,590 L 2032,589 L 2033,589 L 2033,587 L 2034,586 L 2036,586 L 2036,585 L 2037,584 L 2038,584 L 2038,583 L 2040,581 L 2040,580 L 2041,579 L 2043,579 L 2043,575 L 2044,574 L 2045,574 L 2045,573 L 2046,572 L 2047,572 L 2047,539 L 2045,537 L 2045,534 L 2043,532 L 2043,529 L 2041,529 L 2040,528 L 2040,527 L 2039,527 L 2038,526 L 2038,524 L 2034,524 L 2033,523 L 2033,522 L 2031,520 L 2031,519 L 2027,519 L 2026,518 Z" fill="#9c1d5e" /><path d="M 942,518 L 941,519 L 940,519 L 940,521 L 939,522 L 937,522 L 937,523 L 936,524 L 935,524 L 935,526 L 934,527 L 932,527 L 932,528 L 931,529 L 930,529 L 930,530 L 929,531 L 928,531 L 928,532 L 926,534 L 925,534 L 925,535 L 924,536 L 923,536 L 923,537 L 921,539 L 920,539 L 920,540 L 919,541 L 918,541 L 918,543 L 917,544 L 915,544 L 915,545 L 914,546 L 913,546 L 913,547 L 909,551 L 908,551 L 908,552 L 907,553 L 906,553 L 906,554 L 904,556 L 903,556 L 903,557 L 902,558 L 901,558 L 901,559 L 899,561 L 898,561 L 898,562 L 897,563 L 896,563 L 896,564 L 894,566 L 893,566 L 893,567 L 892,568 L 891,568 L 891,569 L 890,570 L 889,570 L 889,571 L 887,573 L 886,573 L 886,574 L 885,575 L 884,575 L 884,576 L 882,578 L 881,578 L 881,579 L 880,580 L 879,580 L 879,581 L 875,585 L 874,585 L 874,586 L 868,592 L 867,592 L 867,593 L 863,597 L 862,597 L 862,598 L 861,599 L 860,599 L 860,600 L 858,602 L 857,602 L 857,603 L 853,607 L 852,607 L 852,608 L 851,609 L 850,609 L 850,610 L 846,614 L 845,614 L 845,615 L 841,619 L 840,619 L 840,620 L 839,621 L 838,621 L 838,622 L 836,624 L 835,624 L 835,625 L 829,631 L 828,631 L 828,632 L 827,633 L 826,633 L 826,634 L 824,636 L 823,636 L 823,637 L 822,638 L 821,638 L 821,639 L 819,641 L 818,641 L 818,642 L 817,643 L 816,643 L 816,644 L 812,648 L 811,648 L 811,649 L 809,651 L 809,652 L 808,653 L 806,653 L 806,654 L 805,655 L 804,655 L 804,656 L 802,658 L 801,658 L 801,659 L 800,660 L 799,660 L 799,662 L 798,663 L 796,663 L 796,664 L 795,665 L 794,665 L 794,666 L 792,668 L 792,669 L 791,670 L 789,670 L 789,671 L 788,672 L 787,672 L 787,674 L 786,675 L 784,675 L 784,676 L 783,677 L 782,677 L 782,679 L 781,680 L 779,680 L 779,681 L 778,682 L 777,682 L 777,683 L 775,685 L 775,686 L 774,687 L 772,687 L 772,688 L 770,690 L 770,696 L 771,696 L 772,697 L 772,698 L 773,699 L 774,699 L 775,700 L 775,701 L 776,701 L 777,702 L 777,703 L 778,703 L 779,704 L 779,705 L 782,708 L 783,708 L 784,709 L 784,711 L 786,711 L 787,712 L 787,713 L 788,713 L 789,714 L 789,716 L 791,716 L 792,717 L 792,718 L 793,718 L 794,719 L 794,720 L 795,720 L 796,721 L 796,722 L 799,725 L 800,725 L 801,726 L 801,727 L 804,730 L 805,730 L 806,731 L 806,733 L 807,733 L 809,735 L 810,735 L 811,736 L 811,737 L 816,742 L 817,742 L 818,743 L 818,744 L 821,747 L 822,747 L 823,748 L 823,749 L 826,752 L 827,752 L 828,753 L 828,755 L 829,755 L 831,757 L 832,757 L 833,758 L 833,759 L 834,759 L 835,760 L 835,761 L 838,764 L 839,764 L 840,765 L 840,766 L 843,769 L 844,769 L 845,770 L 845,771 L 848,774 L 849,774 L 850,775 L 850,776 L 851,776 L 852,777 L 852,779 L 853,779 L 855,781 L 856,781 L 857,782 L 857,783 L 860,786 L 861,786 L 862,787 L 862,788 L 865,791 L 866,791 L 867,792 L 867,793 L 869,795 L 869,796 L 870,796 L 872,798 L 873,798 L 874,799 L 874,801 L 875,801 L 877,803 L 878,803 L 879,804 L 879,805 L 882,808 L 883,808 L 884,809 L 884,810 L 889,815 L 890,815 L 891,816 L 891,818 L 892,818 L 894,820 L 895,820 L 896,821 L 896,822 L 899,825 L 900,825 L 901,826 L 901,827 L 904,830 L 905,830 L 906,831 L 906,832 L 907,832 L 908,833 L 908,835 L 909,835 L 911,837 L 912,837 L 913,838 L 913,840 L 914,840 L 916,842 L 917,842 L 918,843 L 918,844 L 921,847 L 922,847 L 923,848 L 923,849 L 925,851 L 925,852 L 926,852 L 928,854 L 929,854 L 930,855 L 930,856 L 933,859 L 934,859 L 935,860 L 935,861 L 937,863 L 937,864 L 939,864 L 940,865 L 940,866 L 942,868 L 942,869 L 943,869 L 945,871 L 946,871 L 947,872 L 947,873 L 950,876 L 951,876 L 952,877 L 952,878 L 954,880 L 954,881 L 956,881 L 957,882 L 957,883 L 959,885 L 959,886 L 960,886 L 964,890 L 964,891 L 965,891 L 967,893 L 968,893 L 969,894 L 969,895 L 971,897 L 971,898 L 973,898 L 974,899 L 974,901 L 975,901 L 976,902 L 976,903 L 978,903 L 979,904 L 979,905 L 981,907 L 981,908 L 982,908 L 983,909 L 983,910 L 989,910 L 997,902 L 997,901 L 998,900 L 999,900 L 1001,898 L 1002,898 L 1002,896 L 1003,895 L 1004,895 L 1004,894 L 1005,893 L 1006,893 L 1007,892 L 1007,891 L 1008,890 L 1009,890 L 1014,885 L 1014,884 L 1015,883 L 1016,883 L 1018,881 L 1019,881 L 1019,879 L 1020,878 L 1021,878 L 1024,875 L 1024,874 L 1025,873 L 1026,873 L 1036,863 L 1036,862 L 1037,861 L 1038,861 L 1038,860 L 1039,859 L 1040,859 L 1041,858 L 1041,857 L 1042,856 L 1043,856 L 1043,855 L 1044,854 L 1045,854 L 1053,846 L 1053,845 L 1054,844 L 1055,844 L 1055,843 L 1056,842 L 1057,842 L 1058,841 L 1058,840 L 1059,839 L 1060,839 L 1060,838 L 1061,837 L 1062,837 L 1065,834 L 1065,833 L 1066,832 L 1067,832 L 1070,829 L 1070,828 L 1071,827 L 1072,827 L 1072,826 L 1073,825 L 1074,825 L 1075,824 L 1075,823 L 1076,822 L 1077,822 L 1077,821 L 1078,820 L 1079,820 L 1080,819 L 1080,818 L 1081,817 L 1082,817 L 1082,816 L 1083,815 L 1084,815 L 1089,810 L 1089,809 L 1090,808 L 1091,808 L 1092,807 L 1092,806 L 1093,805 L 1094,805 L 1094,804 L 1095,803 L 1096,803 L 1099,800 L 1099,799 L 1100,798 L 1101,798 L 1104,795 L 1104,794 L 1105,793 L 1106,793 L 1106,792 L 1107,791 L 1108,791 L 1109,790 L 1109,789 L 1110,788 L 1111,788 L 1111,787 L 1112,786 L 1113,786 L 1114,785 L 1114,784 L 1115,783 L 1116,783 L 1116,782 L 1117,781 L 1118,781 L 1121,778 L 1121,777 L 1122,776 L 1123,776 L 1128,771 L 1128,770 L 1129,769 L 1130,769 L 1131,768 L 1131,767 L 1132,766 L 1133,766 L 1133,765 L 1134,764 L 1135,764 L 1138,761 L 1138,760 L 1139,759 L 1140,759 L 1145,754 L 1145,753 L 1146,752 L 1147,752 L 1150,749 L 1150,748 L 1151,747 L 1152,747 L 1155,744 L 1155,743 L 1156,742 L 1157,742 L 1160,739 L 1160,738 L 1161,737 L 1162,737 L 1162,736 L 1163,735 L 1164,735 L 1167,732 L 1167,731 L 1168,730 L 1169,730 L 1172,727 L 1172,726 L 1173,725 L 1174,725 L 1177,722 L 1177,721 L 1178,720 L 1179,720 L 1184,715 L 1184,714 L 1185,713 L 1186,713 L 1189,710 L 1189,709 L 1190,708 L 1191,708 L 1194,705 L 1194,704 L 1195,703 L 1196,703 L 1199,700 L 1199,699 L 1200,698 L 1201,698 L 1201,697 L 1202,696 L 1203,696 L 1206,693 L 1206,692 L 1207,691 L 1208,691 L 1211,688 L 1211,687 L 1212,686 L 1213,686 L 1216,683 L 1216,682 L 1217,681 L 1218,681 L 1218,680 L 1219,679 L 1220,679 L 1223,676 L 1223,675 L 1224,674 L 1225,674 L 1228,671 L 1228,670 L 1229,669 L 1230,669 L 1233,666 L 1233,665 L 1234,664 L 1235,664 L 1238,661 L 1238,660 L 1239,659 L 1240,659 L 1240,658 L 1241,657 L 1242,657 L 1245,654 L 1245,653 L 1246,652 L 1247,652 L 1250,649 L 1250,648 L 1251,647 L 1252,647 L 1255,644 L 1255,643 L 1256,642 L 1257,642 L 1257,641 L 1258,640 L 1259,640 L 1262,637 L 1262,636 L 1263,635 L 1264,635 L 1267,632 L 1267,631 L 1268,630 L 1269,630 L 1272,627 L 1272,626 L 1273,625 L 1274,625 L 1274,624 L 1275,623 L 1276,623 L 1277,622 L 1277,621 L 1278,620 L 1279,620 L 1279,619 L 1280,618 L 1281,618 L 1284,615 L 1284,614 L 1285,613 L 1286,613 L 1289,610 L 1289,609 L 1290,608 L 1291,608 L 1294,605 L 1294,604 L 1295,603 L 1296,603 L 1296,602 L 1297,601 L 1298,601 L 1301,598 L 1301,597 L 1302,596 L 1303,596 L 1306,593 L 1306,592 L 1307,591 L 1308,591 L 1311,588 L 1311,587 L 1312,586 L 1313,586 L 1313,585 L 1314,584 L 1315,584 L 1316,583 L 1316,582 L 1317,581 L 1318,581 L 1318,580 L 1319,579 L 1320,579 L 1323,576 L 1323,575 L 1324,574 L 1325,574 L 1328,571 L 1328,568 L 1329,567 L 1330,567 L 1331,566 L 1331,565 L 1333,563 L 1333,556 L 1334,555 L 1335,555 L 1335,541 L 1334,541 L 1333,540 L 1333,534 L 1332,534 L 1331,533 L 1331,531 L 1330,530 L 1330,529 L 1329,529 L 1328,528 L 1328,527 L 1327,527 L 1326,526 L 1326,524 L 1324,524 L 1323,523 L 1323,522 L 1322,522 L 1321,521 L 1321,520 L 1320,519 L 1315,519 L 1314,518 Z" fill="#9c1d5e" /><path d="M 594,518 L 594,520 L 595,520 L 597,522 L 597,523 L 598,523 L 599,524 L 599,525 L 600,525 L 602,527 L 602,528 L 603,528 L 604,529 L 604,530 L 606,530 L 607,531 L 607,533 L 608,533 L 609,534 L 609,535 L 610,535 L 611,536 L 611,537 L 612,538 L 613,538 L 614,539 L 614,540 L 615,540 L 616,541 L 616,542 L 617,543 L 618,543 L 619,544 L 619,545 L 620,545 L 621,546 L 621,547 L 623,547 L 624,548 L 624,550 L 625,550 L 626,551 L 626,552 L 627,552 L 628,553 L 628,555 L 630,555 L 631,556 L 631,557 L 632,557 L 633,558 L 633,560 L 635,560 L 636,561 L 636,562 L 637,562 L 638,563 L 638,564 L 639,564 L 641,566 L 641,567 L 642,567 L 643,568 L 643,569 L 644,569 L 645,570 L 645,571 L 646,572 L 647,572 L 648,573 L 648,574 L 649,574 L 650,575 L 650,577 L 652,577 L 653,578 L 653,579 L 654,579 L 655,580 L 655,582 L 657,582 L 658,583 L 658,584 L 659,584 L 660,585 L 660,586 L 661,586 L 663,588 L 663,589 L 664,589 L 665,590 L 665,591 L 666,591 L 667,592 L 667,594 L 669,594 L 670,595 L 670,596 L 671,596 L 672,597 L 672,599 L 674,599 L 675,600 L 675,601 L 676,601 L 677,602 L 677,603 L 679,603 L 680,604 L 680,606 L 683,606 L 684,605 L 684,604 L 685,603 L 686,603 L 686,602 L 687,601 L 689,601 L 689,600 L 690,599 L 691,599 L 691,597 L 692,596 L 693,596 L 696,593 L 696,592 L 697,591 L 698,591 L 698,590 L 699,589 L 700,589 L 701,588 L 701,587 L 702,586 L 703,586 L 703,585 L 704,584 L 705,584 L 708,581 L 708,580 L 709,579 L 710,579 L 712,577 L 713,577 L 713,575 L 714,574 L 715,574 L 715,573 L 716,572 L 717,572 L 718,571 L 718,570 L 719,569 L 720,569 L 720,568 L 721,567 L 722,567 L 722,565 L 723,564 L 723,563 L 724,562 L 725,562 L 725,536 L 724,536 L 723,535 L 723,532 L 722,531 L 721,531 L 720,530 L 720,527 L 719,527 L 717,525 L 717,524 L 716,524 L 715,523 L 715,522 L 713,522 L 710,519 L 707,519 L 706,518 Z" fill="#9c1d5e" /><path d="M 25,518 L 24,519 L 19,519 L 18,520 L 18,521 L 17,522 L 16,522 L 14,524 L 12,524 L 11,525 L 11,526 L 10,527 L 9,527 L 9,530 L 8,531 L 7,531 L 6,532 L 6,533 L 5,534 L 4,534 L 4,536 L 3,537 L 3,538 L 2,539 L 1,539 L 1,550 L 0,551 L 0,560 L 1,561 L 1,568 L 3,570 L 3,571 L 4,572 L 4,574 L 5,574 L 6,575 L 6,579 L 8,579 L 9,580 L 9,581 L 10,581 L 11,582 L 11,584 L 12,584 L 14,586 L 15,586 L 16,587 L 16,589 L 17,589 L 18,590 L 18,591 L 19,591 L 21,593 L 21,594 L 22,594 L 23,595 L 23,596 L 24,596 L 26,598 L 26,599 L 27,599 L 28,600 L 28,601 L 29,601 L 30,602 L 30,603 L 31,603 L 32,604 L 32,605 L 33,606 L 34,606 L 35,607 L 35,608 L 36,608 L 37,609 L 37,610 L 38,611 L 39,611 L 40,612 L 40,614 L 41,615 L 41,616 L 42,615 L 43,616 L 43,618 L 44,618 L 45,619 L 45,620 L 47,620 L 48,621 L 48,623 L 49,623 L 50,624 L 50,625 L 51,625 L 52,626 L 52,627 L 53,628 L 54,628 L 55,629 L 55,630 L 56,630 L 57,631 L 57,632 L 58,632 L 60,634 L 60,635 L 61,635 L 62,636 L 62,637 L 63,637 L 65,639 L 65,640 L 66,640 L 67,641 L 67,642 L 69,642 L 70,643 L 70,645 L 71,645 L 72,646 L 72,647 L 73,647 L 75,649 L 75,650 L 76,650 L 77,651 L 77,652 L 78,652 L 79,653 L 79,654 L 80,655 L 81,655 L 84,658 L 84,659 L 86,659 L 87,660 L 87,662 L 88,662 L 89,663 L 89,664 L 90,664 L 91,665 L 91,666 L 92,667 L 93,667 L 94,668 L 94,669 L 95,669 L 96,670 L 96,671 L 97,672 L 98,672 L 99,673 L 99,674 L 100,674 L 101,675 L 101,676 L 102,676 L 104,678 L 104,679 L 105,679 L 106,680 L 106,681 L 107,681 L 108,682 L 108,683 L 109,684 L 110,684 L 111,685 L 111,686 L 112,686 L 113,687 L 113,688 L 114,689 L 115,689 L 116,690 L 116,691 L 117,691 L 118,692 L 118,693 L 119,693 L 121,695 L 121,696 L 122,696 L 123,697 L 123,698 L 124,698 L 128,702 L 128,703 L 129,703 L 130,704 L 130,705 L 131,706 L 132,706 L 133,707 L 133,708 L 134,708 L 135,709 L 135,710 L 136,710 L 138,712 L 138,713 L 139,713 L 140,714 L 140,715 L 141,715 L 145,719 L 145,720 L 146,720 L 147,721 L 147,722 L 148,722 L 150,724 L 150,725 L 151,725 L 152,726 L 152,727 L 153,728 L 154,728 L 155,729 L 155,730 L 156,730 L 157,731 L 157,732 L 158,733 L 159,733 L 160,734 L 160,735 L 161,735 L 162,736 L 162,737 L 163,737 L 164,738 L 164,739 L 165,739 L 167,741 L 167,742 L 168,742 L 169,743 L 169,744 L 170,744 L 172,746 L 172,747 L 173,747 L 174,748 L 174,749 L 175,749 L 177,751 L 177,752 L 178,752 L 179,753 L 179,754 L 180,754 L 181,755 L 181,756 L 182,756 L 183,757 L 183,758 L 184,759 L 185,759 L 186,760 L 186,761 L 187,761 L 189,763 L 189,764 L 190,764 L 191,765 L 191,766 L 192,766 L 194,768 L 194,769 L 195,769 L 196,770 L 196,771 L 197,771 L 198,772 L 198,773 L 201,776 L 202,776 L 205,779 L 205,780 L 206,780 L 208,782 L 208,783 L 209,783 L 211,785 L 211,786 L 212,786 L 213,787 L 213,788 L 214,788 L 215,789 L 215,790 L 216,791 L 217,791 L 218,792 L 218,793 L 219,793 L 220,794 L 220,795 L 221,795 L 223,797 L 223,798 L 224,798 L 225,799 L 225,800 L 226,800 L 228,802 L 228,803 L 229,803 L 230,804 L 230,805 L 231,805 L 233,807 L 233,808 L 234,808 L 235,809 L 235,810 L 236,810 L 237,811 L 237,812 L 238,812 L 239,813 L 239,814 L 240,815 L 241,815 L 242,816 L 242,817 L 243,817 L 244,818 L 244,819 L 245,820 L 246,820 L 247,821 L 247,822 L 248,822 L 249,823 L 249,824 L 250,825 L 251,825 L 252,826 L 252,827 L 253,827 L 254,828 L 254,829 L 257,832 L 258,832 L 259,833 L 259,834 L 262,837 L 263,837 L 264,838 L 264,839 L 265,839 L 266,840 L 266,842 L 268,842 L 269,843 L 269,844 L 270,844 L 271,845 L 271,846 L 272,847 L 273,847 L 274,848 L 274,849 L 275,849 L 276,850 L 276,851 L 277,851 L 278,852 L 278,853 L 279,854 L 280,854 L 281,855 L 281,856 L 282,856 L 284,858 L 283,859 L 284,858 L 286,860 L 286,861 L 287,861 L 288,862 L 288,863 L 289,864 L 290,864 L 291,865 L 291,866 L 292,866 L 293,867 L 293,868 L 296,871 L 297,871 L 298,872 L 298,873 L 299,873 L 300,874 L 300,876 L 302,876 L 303,877 L 303,878 L 304,878 L 306,880 L 305,881 L 306,880 L 308,882 L 308,883 L 309,883 L 310,884 L 310,885 L 311,885 L 312,886 L 312,887 L 313,888 L 314,888 L 315,889 L 315,890 L 316,890 L 317,891 L 317,893 L 319,893 L 320,894 L 320,895 L 321,895 L 322,896 L 322,898 L 324,898 L 325,899 L 325,900 L 326,900 L 327,901 L 327,902 L 328,903 L 329,903 L 330,904 L 330,905 L 331,905 L 332,906 L 332,907 L 333,907 L 334,908 L 334,909 L 335,910 L 336,910 L 337,911 L 337,912 L 338,912 L 339,913 L 339,915 L 341,915 L 342,916 L 342,917 L 343,917 L 344,918 L 344,920 L 346,920 L 347,921 L 347,922 L 348,922 L 349,923 L 349,924 L 352,927 L 353,927 L 354,928 L 354,929 L 355,929 L 356,930 L 356,932 L 358,932 L 359,933 L 359,934 L 360,934 L 361,935 L 361,937 L 363,937 L 364,938 L 364,939 L 365,939 L 366,940 L 366,941 L 369,944 L 370,944 L 371,945 L 371,946 L 372,946 L 373,947 L 373,949 L 375,949 L 376,950 L 376,951 L 377,951 L 378,952 L 378,953 L 379,954 L 380,954 L 381,955 L 381,956 L 382,956 L 383,957 L 383,959 L 385,959 L 386,960 L 386,961 L 387,961 L 388,962 L 388,963 L 390,965 L 390,966 L 392,966 L 393,967 L 393,968 L 394,968 L 395,969 L 395,971 L 397,971 L 398,972 L 398,973 L 399,973 L 400,974 L 400,976 L 402,976 L 403,977 L 403,978 L 404,978 L 405,979 L 405,981 L 406,981 L 408,983 L 409,983 L 410,984 L 410,985 L 411,985 L 412,986 L 412,987 L 413,988 L 414,988 L 415,989 L 415,990 L 416,990 L 417,991 L 417,993 L 419,993 L 420,994 L 420,995 L 421,995 L 422,996 L 422,998 L 423,998 L 425,1000 L 426,1000 L 427,1001 L 427,1002 L 429,1004 L 429,1005 L 431,1005 L 432,1006 L 432,1007 L 433,1007 L 434,1008 L 434,1009 L 435,1010 L 436,1010 L 437,1011 L 437,1012 L 438,1012 L 439,1013 L 439,1015 L 441,1015 L 442,1016 L 442,1017 L 443,1017 L 444,1018 L 444,1020 L 445,1020 L 446,1021 L 446,1022 L 448,1022 L 449,1023 L 449,1024 L 450,1024 L 451,1025 L 451,1027 L 453,1027 L 454,1028 L 454,1029 L 455,1029 L 456,1030 L 456,1032 L 458,1032 L 459,1033 L 459,1034 L 460,1034 L 461,1035 L 461,1037 L 463,1037 L 464,1038 L 464,1039 L 465,1039 L 466,1040 L 466,1041 L 468,1043 L 468,1044 L 470,1044 L 471,1045 L 471,1046 L 472,1046 L 473,1047 L 473,1049 L 475,1049 L 476,1050 L 476,1051 L 477,1051 L 478,1052 L 478,1054 L 479,1053 L 480,1054 L 480,1055 L 481,1056 L 482,1056 L 483,1057 L 483,1059 L 484,1058 L 485,1059 L 485,1061 L 487,1061 L 488,1062 L 488,1063 L 489,1063 L 490,1064 L 490,1066 L 492,1066 L 493,1067 L 493,1068 L 494,1068 L 495,1069 L 495,1070 L 496,1071 L 497,1071 L 498,1072 L 498,1073 L 499,1073 L 500,1074 L 500,1076 L 501,1076 L 502,1077 L 502,1078 L 504,1078 L 505,1079 L 505,1080 L 507,1082 L 507,1083 L 508,1083 L 510,1085 L 511,1085 L 512,1086 L 512,1088 L 514,1088 L 515,1089 L 515,1090 L 516,1090 L 517,1091 L 517,1093 L 518,1093 L 519,1094 L 519,1095 L 521,1095 L 522,1096 L 522,1098 L 523,1097 L 524,1098 L 524,1100 L 526,1100 L 527,1101 L 527,1102 L 528,1102 L 529,1103 L 529,1104 L 532,1107 L 533,1107 L 534,1108 L 534,1110 L 535,1110 L 537,1112 L 538,1112 L 539,1113 L 539,1115 L 540,1115 L 541,1116 L 541,1117 L 543,1117 L 544,1118 L 544,1119 L 546,1121 L 546,1122 L 547,1122 L 549,1124 L 550,1124 L 551,1125 L 551,1126 L 554,1129 L 555,1129 L 556,1130 L 556,1132 L 557,1132 L 559,1134 L 560,1134 L 561,1135 L 561,1137 L 562,1136 L 563,1137 L 563,1139 L 565,1139 L 566,1140 L 566,1141 L 567,1141 L 568,1142 L 568,1144 L 569,1144 L 571,1146 L 572,1146 L 573,1147 L 573,1149 L 574,1149 L 575,1150 L 575,1151 L 577,1151 L 578,1152 L 578,1154 L 579,1154 L 581,1156 L 582,1156 L 583,1157 L 583,1158 L 584,1158 L 585,1159 L 585,1160 L 588,1163 L 589,1163 L 590,1164 L 590,1166 L 591,1166 L 594,1169 L 594,1170 L 595,1171 L 596,1171 L 598,1173 L 599,1173 L 600,1174 L 600,1175 L 605,1180 L 606,1180 L 607,1181 L 607,1182 L 611,1186 L 611,1187 L 612,1188 L 613,1188 L 614,1189 L 614,1190 L 615,1190 L 616,1191 L 616,1192 L 617,1193 L 618,1193 L 621,1196 L 621,1197 L 623,1197 L 624,1198 L 624,1199 L 625,1199 L 627,1201 L 627,1202 L 631,1206 L 631,1207 L 632,1207 L 633,1208 L 633,1209 L 634,1210 L 635,1210 L 638,1213 L 638,1214 L 640,1214 L 641,1215 L 641,1216 L 643,1218 L 643,1219 L 645,1219 L 646,1220 L 646,1221 L 650,1225 L 650,1226 L 652,1226 L 653,1227 L 653,1229 L 654,1229 L 655,1230 L 655,1231 L 656,1232 L 657,1232 L 660,1235 L 660,1236 L 662,1236 L 663,1237 L 663,1238 L 665,1240 L 665,1241 L 666,1241 L 667,1242 L 667,1243 L 668,1243 L 672,1247 L 672,1248 L 674,1248 L 675,1249 L 675,1251 L 676,1251 L 678,1253 L 679,1253 L 680,1254 L 680,1255 L 681,1255 L 682,1256 L 682,1258 L 684,1258 L 685,1259 L 685,1260 L 686,1260 L 687,1261 L 687,1263 L 688,1263 L 690,1265 L 691,1265 L 692,1266 L 692,1267 L 694,1269 L 694,1270 L 696,1270 L 697,1271 L 697,1272 L 699,1274 L 699,1275 L 701,1275 L 702,1276 L 702,1277 L 703,1277 L 704,1278 L 704,1280 L 705,1280 L 706,1281 L 706,1282 L 707,1282 L 711,1286 L 711,1287 L 713,1287 L 714,1288 L 714,1290 L 715,1289 L 716,1290 L 716,1292 L 718,1292 L 719,1293 L 719,1294 L 721,1296 L 721,1297 L 722,1297 L 726,1301 L 726,1302 L 727,1302 L 728,1303 L 728,1304 L 730,1304 L 731,1305 L 731,1307 L 732,1307 L 733,1308 L 733,1309 L 735,1309 L 736,1310 L 736,1311 L 738,1313 L 738,1314 L 740,1314 L 741,1315 L 741,1316 L 743,1318 L 743,1319 L 744,1319 L 745,1320 L 745,1321 L 746,1321 L 748,1323 L 748,1324 L 749,1324 L 750,1325 L 750,1326 L 752,1326 L 753,1327 L 753,1328 L 755,1330 L 755,1331 L 757,1331 L 758,1332 L 758,1333 L 759,1333 L 760,1334 L 760,1336 L 762,1336 L 763,1337 L 762,1338 L 763,1338 L 765,1340 L 765,1341 L 766,1341 L 767,1342 L 767,1343 L 769,1343 L 770,1344 L 770,1346 L 771,1346 L 772,1347 L 772,1348 L 774,1348 L 775,1349 L 775,1350 L 779,1354 L 779,1355 L 780,1355 L 782,1357 L 782,1358 L 783,1358 L 787,1362 L 787,1363 L 788,1363 L 789,1364 L 789,1365 L 791,1365 L 792,1366 L 792,1368 L 793,1368 L 797,1372 L 798,1372 L 799,1373 L 799,1375 L 800,1375 L 804,1379 L 804,1380 L 805,1380 L 806,1381 L 806,1382 L 808,1382 L 809,1383 L 809,1385 L 810,1385 L 811,1386 L 811,1387 L 813,1387 L 814,1388 L 814,1389 L 815,1389 L 816,1390 L 816,1392 L 817,1392 L 818,1393 L 818,1394 L 820,1394 L 821,1395 L 821,1396 L 823,1398 L 823,1399 L 825,1399 L 826,1400 L 826,1402 L 827,1402 L 828,1403 L 828,1404 L 830,1404 L 831,1405 L 831,1407 L 832,1407 L 833,1408 L 833,1409 L 835,1409 L 836,1410 L 835,1411 L 837,1411 L 838,1412 L 838,1414 L 839,1414 L 840,1415 L 840,1416 L 841,1416 L 843,1418 L 843,1419 L 844,1419 L 846,1421 L 847,1421 L 848,1422 L 848,1424 L 849,1423 L 850,1424 L 850,1426 L 851,1426 L 853,1428 L 854,1428 L 855,1429 L 855,1430 L 856,1431 L 857,1431 L 858,1432 L 858,1433 L 859,1433 L 860,1434 L 860,1435 L 862,1437 L 862,1438 L 863,1438 L 867,1442 L 867,1443 L 869,1443 L 870,1444 L 870,1446 L 871,1446 L 872,1447 L 872,1448 L 873,1448 L 874,1449 L 874,1450 L 876,1450 L 877,1451 L 877,1453 L 878,1453 L 880,1455 L 881,1455 L 882,1456 L 882,1457 L 884,1459 L 884,1460 L 885,1460 L 887,1462 L 887,1463 L 888,1463 L 889,1464 L 889,1465 L 890,1465 L 891,1466 L 891,1467 L 893,1467 L 894,1468 L 894,1470 L 895,1470 L 896,1471 L 896,1472 L 897,1472 L 899,1474 L 899,1475 L 900,1475 L 904,1479 L 904,1480 L 905,1480 L 906,1481 L 906,1482 L 907,1482 L 909,1484 L 909,1485 L 910,1485 L 911,1486 L 911,1487 L 914,1487 L 915,1488 L 915,1489 L 917,1489 L 918,1490 L 918,1492 L 919,1492 L 920,1493 L 920,1494 L 922,1494 L 923,1495 L 923,1497 L 924,1497 L 926,1499 L 929,1499 L 930,1500 L 930,1501 L 931,1502 L 932,1502 L 933,1503 L 933,1504 L 936,1504 L 937,1505 L 937,1506 L 939,1506 L 940,1507 L 941,1507 L 942,1508 L 942,1509 L 944,1509 L 945,1510 L 945,1511 L 948,1511 L 950,1513 L 950,1514 L 954,1514 L 955,1515 L 955,1516 L 961,1516 L 962,1517 L 962,1519 L 965,1519 L 967,1521 L 973,1521 L 974,1522 L 974,1523 L 975,1524 L 980,1524 L 982,1526 L 990,1526 L 991,1527 L 991,1528 L 1065,1528 L 1067,1526 L 1075,1526 L 1075,1525 L 1076,1524 L 1081,1524 L 1084,1521 L 1089,1521 L 1091,1519 L 1097,1519 L 1097,1517 L 1098,1516 L 1102,1516 L 1102,1515 L 1103,1514 L 1106,1514 L 1107,1513 L 1107,1512 L 1108,1511 L 1111,1511 L 1113,1509 L 1116,1509 L 1116,1508 L 1117,1507 L 1118,1507 L 1119,1506 L 1119,1505 L 1120,1504 L 1123,1504 L 1125,1502 L 1126,1502 L 1126,1501 L 1128,1499 L 1131,1499 L 1131,1498 L 1132,1497 L 1133,1497 L 1134,1496 L 1134,1495 L 1135,1494 L 1136,1494 L 1136,1493 L 1137,1492 L 1140,1492 L 1141,1491 L 1141,1490 L 1142,1489 L 1143,1489 L 1143,1488 L 1144,1487 L 1145,1487 L 1145,1486 L 1147,1484 L 1148,1484 L 1148,1483 L 1149,1482 L 1150,1482 L 1150,1481 L 1151,1480 L 1152,1480 L 1153,1479 L 1153,1478 L 1154,1477 L 1155,1477 L 1155,1476 L 1156,1475 L 1157,1475 L 1158,1474 L 1158,1473 L 1159,1472 L 1160,1472 L 1160,1471 L 1161,1470 L 1162,1470 L 1162,1469 L 1164,1467 L 1165,1467 L 1165,1466 L 1166,1465 L 1167,1465 L 1167,1464 L 1168,1463 L 1169,1463 L 1170,1462 L 1170,1461 L 1171,1460 L 1172,1460 L 1172,1459 L 1173,1458 L 1174,1458 L 1175,1457 L 1175,1456 L 1176,1455 L 1177,1455 L 1177,1454 L 1178,1453 L 1179,1453 L 1179,1452 L 1181,1450 L 1182,1450 L 1182,1449 L 1183,1448 L 1184,1448 L 1184,1447 L 1186,1445 L 1187,1445 L 1187,1444 L 1188,1443 L 1189,1443 L 1189,1442 L 1190,1441 L 1191,1441 L 1192,1440 L 1192,1439 L 1193,1438 L 1194,1438 L 1194,1437 L 1195,1436 L 1196,1436 L 1197,1435 L 1197,1434 L 1198,1433 L 1199,1433 L 1199,1432 L 1200,1431 L 1201,1431 L 1201,1430 L 1203,1428 L 1204,1428 L 1204,1427 L 1205,1426 L 1206,1426 L 1206,1425 L 1207,1424 L 1208,1424 L 1209,1423 L 1209,1422 L 1210,1421 L 1211,1421 L 1211,1420 L 1212,1419 L 1213,1419 L 1214,1418 L 1214,1417 L 1215,1416 L 1216,1416 L 1216,1415 L 1217,1414 L 1218,1414 L 1218,1413 L 1220,1411 L 1221,1411 L 1221,1410 L 1222,1409 L 1223,1409 L 1223,1408 L 1225,1406 L 1226,1406 L 1226,1405 L 1227,1404 L 1228,1404 L 1228,1403 L 1229,1402 L 1230,1402 L 1231,1401 L 1231,1400 L 1232,1399 L 1233,1399 L 1233,1398 L 1234,1397 L 1235,1397 L 1235,1396 L 1237,1394 L 1238,1394 L 1238,1393 L 1239,1392 L 1240,1392 L 1240,1391 L 1242,1389 L 1243,1389 L 1243,1388 L 1244,1387 L 1245,1387 L 1245,1386 L 1246,1385 L 1247,1385 L 1248,1384 L 1248,1383 L 1249,1382 L 1250,1382 L 1250,1381 L 1251,1380 L 1252,1380 L 1253,1379 L 1253,1378 L 1254,1377 L 1255,1377 L 1255,1376 L 1256,1375 L 1257,1375 L 1257,1374 L 1259,1372 L 1260,1372 L 1260,1371 L 1261,1370 L 1262,1370 L 1262,1369 L 1263,1368 L 1264,1368 L 1265,1367 L 1265,1366 L 1266,1365 L 1267,1365 L 1267,1364 L 1268,1363 L 1269,1363 L 1270,1362 L 1270,1361 L 1271,1360 L 1272,1360 L 1272,1359 L 1273,1358 L 1274,1358 L 1274,1357 L 1275,1356 L 1276,1356 L 1277,1355 L 1277,1354 L 1278,1353 L 1279,1353 L 1279,1352 L 1280,1351 L 1281,1351 L 1282,1350 L 1282,1349 L 1283,1348 L 1284,1348 L 1284,1347 L 1285,1346 L 1286,1346 L 1289,1343 L 1289,1342 L 1290,1341 L 1291,1341 L 1291,1340 L 1292,1339 L 1293,1339 L 1294,1338 L 1294,1337 L 1295,1336 L 1296,1336 L 1296,1335 L 1297,1334 L 1298,1334 L 1299,1333 L 1299,1332 L 1300,1331 L 1301,1331 L 1301,1330 L 1302,1329 L 1303,1329 L 1304,1328 L 1304,1327 L 1305,1326 L 1306,1326 L 1306,1325 L 1307,1324 L 1308,1324 L 1308,1323 L 1309,1322 L 1310,1322 L 1311,1321 L 1311,1320 L 1312,1319 L 1313,1319 L 1313,1318 L 1314,1317 L 1315,1317 L 1316,1316 L 1316,1315 L 1317,1314 L 1318,1314 L 1318,1313 L 1319,1312 L 1320,1312 L 1321,1311 L 1321,1310 L 1322,1309 L 1323,1309 L 1323,1308 L 1324,1307 L 1325,1307 L 1328,1304 L 1328,1303 L 1329,1302 L 1330,1302 L 1330,1301 L 1331,1300 L 1332,1300 L 1333,1299 L 1333,1298 L 1334,1297 L 1335,1297 L 1335,1296 L 1336,1295 L 1337,1295 L 1338,1294 L 1338,1293 L 1339,1292 L 1340,1292 L 1340,1291 L 1341,1290 L 1342,1290 L 1343,1289 L 1343,1288 L 1344,1287 L 1345,1287 L 1345,1286 L 1346,1285 L 1347,1285 L 1347,1284 L 1348,1283 L 1349,1283 L 1350,1282 L 1350,1281 L 1351,1280 L 1352,1280 L 1352,1279 L 1353,1278 L 1354,1278 L 1355,1277 L 1355,1276 L 1356,1275 L 1357,1275 L 1357,1274 L 1358,1273 L 1359,1273 L 1360,1272 L 1360,1271 L 1361,1270 L 1362,1270 L 1362,1269 L 1363,1268 L 1364,1268 L 1364,1267 L 1365,1266 L 1366,1266 L 1367,1265 L 1367,1264 L 1368,1263 L 1369,1263 L 1369,1262 L 1370,1261 L 1371,1261 L 1372,1260 L 1372,1259 L 1373,1258 L 1374,1258 L 1374,1257 L 1375,1256 L 1376,1256 L 1377,1255 L 1377,1254 L 1378,1253 L 1379,1253 L 1379,1252 L 1380,1251 L 1381,1251 L 1384,1248 L 1384,1247 L 1385,1246 L 1386,1246 L 1386,1245 L 1387,1244 L 1388,1244 L 1389,1243 L 1389,1242 L 1390,1241 L 1391,1241 L 1391,1240 L 1392,1239 L 1393,1239 L 1394,1238 L 1394,1237 L 1395,1236 L 1396,1236 L 1396,1235 L 1397,1234 L 1398,1234 L 1398,1233 L 1399,1232 L 1400,1232 L 1400,1231 L 1401,1230 L 1401,1229 L 1399,1227 L 1393,1227 L 1392,1228 L 1392,1229 L 1391,1230 L 1385,1230 L 1385,1231 L 1384,1232 L 1376,1232 L 1375,1233 L 1375,1234 L 1374,1235 L 1365,1235 L 1365,1236 L 1364,1237 L 1349,1237 L 1348,1238 L 1348,1239 L 1347,1240 L 1310,1240 L 1309,1239 L 1309,1238 L 1308,1237 L 1293,1237 L 1291,1235 L 1283,1235 L 1282,1234 L 1282,1233 L 1280,1233 L 1279,1232 L 1273,1232 L 1272,1231 L 1272,1230 L 1266,1230 L 1264,1228 L 1264,1227 L 1258,1227 L 1257,1226 L 1257,1225 L 1251,1225 L 1250,1224 L 1250,1223 L 1249,1222 L 1246,1222 L 1245,1221 L 1245,1220 L 1241,1220 L 1240,1219 L 1240,1218 L 1237,1218 L 1236,1217 L 1236,1216 L 1235,1215 L 1232,1215 L 1231,1214 L 1231,1213 L 1229,1213 L 1228,1212 L 1228,1211 L 1227,1211 L 1226,1210 L 1224,1210 L 1223,1209 L 1223,1208 L 1220,1208 L 1218,1206 L 1218,1205 L 1217,1205 L 1216,1204 L 1216,1203 L 1212,1203 L 1211,1202 L 1211,1201 L 1210,1201 L 1209,1200 L 1209,1199 L 1208,1198 L 1207,1198 L 1206,1197 L 1206,1196 L 1202,1196 L 1201,1195 L 1201,1193 L 1200,1193 L 1199,1192 L 1199,1191 L 1198,1191 L 1197,1190 L 1197,1189 L 1196,1189 L 1194,1187 L 1194,1186 L 1193,1186 L 1192,1185 L 1192,1184 L 1190,1184 L 1189,1183 L 1189,1181 L 1188,1181 L 1186,1179 L 1185,1179 L 1184,1178 L 1184,1177 L 1183,1177 L 1182,1176 L 1182,1174 L 1181,1174 L 1175,1168 L 1175,1167 L 1174,1167 L 1170,1163 L 1170,1162 L 1168,1162 L 1167,1161 L 1167,1160 L 1164,1157 L 1163,1157 L 1162,1156 L 1162,1155 L 1158,1151 L 1158,1150 L 1157,1150 L 1153,1146 L 1153,1145 L 1151,1145 L 1150,1144 L 1150,1143 L 1148,1141 L 1148,1140 L 1146,1140 L 1145,1139 L 1145,1138 L 1143,1136 L 1143,1135 L 1142,1135 L 1136,1129 L 1136,1128 L 1135,1128 L 1133,1126 L 1133,1125 L 1132,1125 L 1131,1124 L 1131,1123 L 1130,1123 L 1126,1119 L 1126,1118 L 1125,1118 L 1123,1116 L 1123,1115 L 1122,1115 L 1121,1114 L 1121,1113 L 1120,1113 L 1119,1112 L 1119,1111 L 1118,1111 L 1114,1107 L 1114,1106 L 1113,1106 L 1109,1102 L 1109,1101 L 1108,1101 L 1104,1097 L 1104,1096 L 1103,1096 L 1102,1095 L 1102,1094 L 1101,1094 L 1097,1090 L 1097,1089 L 1096,1089 L 1092,1085 L 1092,1084 L 1091,1084 L 1087,1080 L 1087,1079 L 1086,1079 L 1082,1075 L 1082,1074 L 1081,1074 L 1080,1073 L 1080,1072 L 1079,1072 L 1075,1068 L 1075,1067 L 1074,1067 L 1073,1066 L 1073,1065 L 1072,1065 L 1070,1063 L 1070,1062 L 1069,1062 L 1065,1058 L 1065,1057 L 1064,1057 L 1063,1056 L 1063,1055 L 1062,1055 L 1061,1054 L 1061,1053 L 1060,1053 L 1058,1051 L 1058,1050 L 1057,1050 L 1055,1048 L 1054,1048 L 1053,1047 L 1053,1045 L 1052,1045 L 1051,1044 L 1051,1043 L 1050,1043 L 1048,1041 L 1048,1040 L 1047,1040 L 1046,1039 L 1046,1038 L 1045,1038 L 1044,1037 L 1044,1036 L 1043,1035 L 1042,1035 L 1041,1034 L 1041,1033 L 1040,1033 L 1039,1032 L 1039,1031 L 1038,1031 L 1036,1029 L 1036,1028 L 1035,1028 L 1034,1027 L 1034,1026 L 1033,1026 L 1031,1024 L 1031,1023 L 1030,1023 L 1029,1022 L 1029,1021 L 1028,1021 L 1026,1019 L 1026,1018 L 1025,1018 L 1024,1017 L 1024,1016 L 1023,1016 L 1022,1015 L 1022,1014 L 1021,1014 L 1019,1012 L 1019,1011 L 1018,1011 L 1017,1010 L 1017,1009 L 1015,1009 L 1014,1008 L 1014,1006 L 1013,1006 L 1012,1005 L 1012,1004 L 1011,1004 L 1009,1002 L 1009,1001 L 1008,1001 L 1007,1000 L 1007,999 L 1006,999 L 1005,998 L 1005,997 L 1004,996 L 1003,996 L 1002,995 L 1002,994 L 1001,994 L 1000,993 L 1000,992 L 998,992 L 997,991 L 997,989 L 996,989 L 995,988 L 995,987 L 994,987 L 992,985 L 992,984 L 991,984 L 990,983 L 990,982 L 989,982 L 988,981 L 988,980 L 987,979 L 986,979 L 985,978 L 985,977 L 984,977 L 983,976 L 983,975 L 982,975 L 980,973 L 980,972 L 979,972 L 978,971 L 978,970 L 977,970 L 975,968 L 975,967 L 974,967 L 973,966 L 973,965 L 972,965 L 971,964 L 971,963 L 970,962 L 969,962 L 968,961 L 968,960 L 967,960 L 966,959 L 966,958 L 965,957 L 964,957 L 963,956 L 963,955 L 962,955 L 961,954 L 961,953 L 960,953 L 958,951 L 958,950 L 957,950 L 956,949 L 956,948 L 955,948 L 954,947 L 954,946 L 953,945 L 952,945 L 951,944 L 951,943 L 950,943 L 949,942 L 949,941 L 948,940 L 947,940 L 946,939 L 946,938 L 945,938 L 944,937 L 944,936 L 943,936 L 941,934 L 941,933 L 940,933 L 939,932 L 939,931 L 938,931 L 936,929 L 936,928 L 935,928 L 934,927 L 934,926 L 933,926 L 932,925 L 932,924 L 931,923 L 930,923 L 929,922 L 929,921 L 928,921 L 927,920 L 927,919 L 926,918 L 925,918 L 924,917 L 924,916 L 923,916 L 922,915 L 922,914 L 921,914 L 919,912 L 919,911 L 918,911 L 917,910 L 917,909 L 916,909 L 915,908 L 915,907 L 914,906 L 913,906 L 912,905 L 912,904 L 911,904 L 910,903 L 910,902 L 909,901 L 908,901 L 907,900 L 907,899 L 906,899 L 905,898 L 905,897 L 904,897 L 902,895 L 902,894 L 901,894 L 900,893 L 900,892 L 899,892 L 898,891 L 898,890 L 897,889 L 896,889 L 895,888 L 895,887 L 894,887 L 893,886 L 893,885 L 892,884 L 891,884 L 890,883 L 890,882 L 889,882 L 888,881 L 888,880 L 887,879 L 886,879 L 885,878 L 885,877 L 884,877 L 883,876 L 883,875 L 882,875 L 880,873 L 880,872 L 879,872 L 878,871 L 878,870 L 877,870 L 876,869 L 876,868 L 875,867 L 874,867 L 873,866 L 873,865 L 872,865 L 871,864 L 871,863 L 870,862 L 869,862 L 868,861 L 868,860 L 867,860 L 866,859 L 866,858 L 865,858 L 863,856 L 863,855 L 862,855 L 861,854 L 861,853 L 860,853 L 859,852 L 859,851 L 858,850 L 857,850 L 856,849 L 856,848 L 855,848 L 854,847 L 854,846 L 853,845 L 852,845 L 851,844 L 851,843 L 850,843 L 849,842 L 849,841 L 848,840 L 847,840 L 846,839 L 846,838 L 845,838 L 844,837 L 844,836 L 843,836 L 842,835 L 842,834 L 841,833 L 840,833 L 839,832 L 839,831 L 838,831 L 837,830 L 837,829 L 836,828 L 835,828 L 834,827 L 834,826 L 833,826 L 832,825 L 832,824 L 831,823 L 830,823 L 829,822 L 829,821 L 828,821 L 827,820 L 827,819 L 826,819 L 825,818 L 825,817 L 824,816 L 823,816 L 822,815 L 822,814 L 821,814 L 820,813 L 820,812 L 819,811 L 818,811 L 817,810 L 817,809 L 816,809 L 815,808 L 815,807 L 814,806 L 813,806 L 812,805 L 812,804 L 811,804 L 810,803 L 810,802 L 809,801 L 808,801 L 807,800 L 807,799 L 806,799 L 805,798 L 805,797 L 804,797 L 803,796 L 803,795 L 802,794 L 801,794 L 800,793 L 800,792 L 799,792 L 798,791 L 798,790 L 797,789 L 796,789 L 795,788 L 795,787 L 794,787 L 793,786 L 793,785 L 792,784 L 791,784 L 790,783 L 790,782 L 789,782 L 788,781 L 788,780 L 787,780 L 786,779 L 786,778 L 785,777 L 784,777 L 783,776 L 783,775 L 782,775 L 781,774 L 781,773 L 780,772 L 779,772 L 778,771 L 778,770 L 777,770 L 776,769 L 776,768 L 775,767 L 774,767 L 773,766 L 773,765 L 772,765 L 771,764 L 771,763 L 770,763 L 769,762 L 769,761 L 768,760 L 767,760 L 766,759 L 766,758 L 765,758 L 764,757 L 764,756 L 763,755 L 762,755 L 761,754 L 761,753 L 760,753 L 759,752 L 759,751 L 758,750 L 757,750 L 756,749 L 756,748 L 755,748 L 754,747 L 754,746 L 753,745 L 752,745 L 751,744 L 751,743 L 750,743 L 749,742 L 749,741 L 748,741 L 747,740 L 747,739 L 746,738 L 745,738 L 744,737 L 744,736 L 743,736 L 742,735 L 742,734 L 741,733 L 740,733 L 739,732 L 739,731 L 738,731 L 737,730 L 737,729 L 736,728 L 735,728 L 734,727 L 734,726 L 733,726 L 732,725 L 732,724 L 731,724 L 730,723 L 730,722 L 729,721 L 728,721 L 727,720 L 727,719 L 726,719 L 725,718 L 725,717 L 722,714 L 721,714 L 720,713 L 720,712 L 717,709 L 716,709 L 715,708 L 715,707 L 714,707 L 713,706 L 713,705 L 712,704 L 711,704 L 710,703 L 710,702 L 709,702 L 708,701 L 708,700 L 705,697 L 704,697 L 703,696 L 703,695 L 700,692 L 699,692 L 698,691 L 698,690 L 695,687 L 694,687 L 693,686 L 693,685 L 692,685 L 691,684 L 691,683 L 690,682 L 689,682 L 688,681 L 688,680 L 687,680 L 686,679 L 686,678 L 683,675 L 682,675 L 681,674 L 681,673 L 678,670 L 677,670 L 676,669 L 676,668 L 675,668 L 674,667 L 674,666 L 671,663 L 670,663 L 669,662 L 669,661 L 666,658 L 665,658 L 664,657 L 664,656 L 661,653 L 660,653 L 659,652 L 659,651 L 654,646 L 653,646 L 652,645 L 652,644 L 649,641 L 648,641 L 647,640 L 647,639 L 644,636 L 643,636 L 642,635 L 642,634 L 641,634 L 640,633 L 640,632 L 639,631 L 638,631 L 637,630 L 637,629 L 636,629 L 635,628 L 635,627 L 632,624 L 631,624 L 630,623 L 630,622 L 627,619 L 626,619 L 625,618 L 625,617 L 622,614 L 621,614 L 620,613 L 620,612 L 619,612 L 618,611 L 618,610 L 615,607 L 614,607 L 613,606 L 613,605 L 610,602 L 609,602 L 608,601 L 608,600 L 605,597 L 604,597 L 603,596 L 603,595 L 602,595 L 601,594 L 601,593 L 598,590 L 597,590 L 596,589 L 596,588 L 595,588 L 594,587 L 594,586 L 593,585 L 592,585 L 591,584 L 591,583 L 588,580 L 587,580 L 586,579 L 586,578 L 581,573 L 580,573 L 579,572 L 579,571 L 576,568 L 575,568 L 574,567 L 574,566 L 573,566 L 572,565 L 572,564 L 571,563 L 570,563 L 569,562 L 569,561 L 568,561 L 567,560 L 567,559 L 566,558 L 565,558 L 564,557 L 564,556 L 563,556 L 562,555 L 562,554 L 559,551 L 558,551 L 557,550 L 557,549 L 556,549 L 555,548 L 555,547 L 554,546 L 553,546 L 552,545 L 552,544 L 551,544 L 550,543 L 550,542 L 549,541 L 548,541 L 547,540 L 547,539 L 546,539 L 545,538 L 545,537 L 542,534 L 541,534 L 540,533 L 540,532 L 537,529 L 536,529 L 535,528 L 535,527 L 534,527 L 533,526 L 533,525 L 532,524 L 531,524 L 530,523 L 530,522 L 529,522 L 528,521 L 528,520 L 526,518 Z" fill="#9c1d5e" /></svg>